<svg xmlns="http://www.w3.org/2000/svg" viewBox="0 0 500 500"><g id="freepik--Floor--inject-26"><path d="M470.18,464.48c0,.15-97.24.26-217.17.26s-217.19-.11-217.19-.26,97.22-.26,217.19-.26S470.18,464.34,470.18,464.48Z" style="fill:#263238"></path></g><g id="freepik--Device--inject-26"><path d="M302.48,464.48l-144.27-.08A31.43,31.43,0,0,1,126.8,433l.07-361.68a31.42,31.42,0,0,1,31.45-31.42l144.27.08A31.42,31.42,0,0,1,334,71.37l-.07,361.69A31.42,31.42,0,0,1,302.48,464.48Z" style="fill:#263238"></path><path d="M303.63,52.69h-28a6.94,6.94,0,0,0-6.79,7.09v5.08a6.94,6.94,0,0,1-6.8,7.09l-54.52,0a7,7,0,0,1-6.79-7.1V59.73a7,7,0,0,0-6.79-7.1H159.65a22,22,0,0,0-22,22l-.07,353a22,22,0,0,0,22,22l144,.08a22,22,0,0,0,22-22l.07-353A22,22,0,0,0,303.63,52.69Z" style="fill:#fff"></path><path d="M303.63,52.69l.76,0a14.45,14.45,0,0,1,2.23.17,20.63,20.63,0,0,1,8.25,2.85,21.22,21.22,0,0,1,5,4.07,22.13,22.13,0,0,1,4.19,6.57,22.79,22.79,0,0,1,1.65,8.94q0,4.88,0,10.37c0,29.33,0,71.76.07,124.18s0,114.86,0,184.18v33a23.53,23.53,0,0,1-.84,6.71,22.24,22.24,0,0,1-2.81,6.2,23.64,23.64,0,0,1-4.59,5.09A22.2,22.2,0,0,1,304.9,450c-4.61.13-9.19,0-13.83.06H263l-57.53,0-29.42,0H161.23a23.21,23.21,0,0,1-14.34-4A22.47,22.47,0,0,1,138.17,434a24.08,24.08,0,0,1-.92-7.44V419.1q0-14.82,0-29.44,0-29.22,0-57.54c0-37.72,0-74.11,0-108.78s0-67.6.05-98.43q0-23.13,0-44.61V75c0-.89.08-1.78.13-2.67s.22-1.77.45-2.62a22.46,22.46,0,0,1,4.63-9.33,22.33,22.33,0,0,1,17.94-8l19.19,0h13.75a7,7,0,0,1,4.33,1.21,7.3,7.3,0,0,1,2.7,3.53,11.77,11.77,0,0,1,.44,4.35v2.14a16.08,16.08,0,0,0,.07,2.1,7,7,0,0,0,1.64,3.69A6.47,6.47,0,0,0,206,71.53a7.24,7.24,0,0,0,2,.2h10l29,.05,12.8,0c1,0,2,0,3,0a6.38,6.38,0,0,0,2.69-1,7,7,0,0,0,3.09-4.43,12.58,12.58,0,0,0,.17-2.67V61.08a14.55,14.55,0,0,1,.12-2.56,7.37,7.37,0,0,1,.83-2.36,6.92,6.92,0,0,1,3.51-3.11,10.85,10.85,0,0,1,4.37-.46l14.28,0,8.78,0,3,0-3,0-8.78,0-14.28,0a10.68,10.68,0,0,0-4.29.47,6.69,6.69,0,0,0-3.4,3,7.25,7.25,0,0,0-.8,2.29,15.07,15.07,0,0,0-.11,2.53v2.64a12,12,0,0,1-.17,2.72,7.23,7.23,0,0,1-3.18,4.6,6.91,6.91,0,0,1-2.8,1c-1,.09-2,0-3,0H208a7.66,7.66,0,0,1-2.07-.2,6.88,6.88,0,0,1-3.56-2.2,7.37,7.37,0,0,1-1.74-3.88,17.23,17.23,0,0,1-.07-2.15V61.52a11.39,11.39,0,0,0-.43-4.21A6.94,6.94,0,0,0,197.59,54a6.65,6.65,0,0,0-4.11-1.13H160.54A21.86,21.86,0,0,0,143,60.64a22.11,22.11,0,0,0-4.53,9.13c-.22.84-.28,1.71-.43,2.57s-.11,1.74-.12,2.62V80.3q0,21.47,0,44.61c0,30.83,0,63.77,0,98.43s0,71.06,0,108.78v57.54q0,14.63,0,29.44v7.42a23.44,23.44,0,0,0,.9,7.27,21.83,21.83,0,0,0,8.48,11.71,22.55,22.55,0,0,0,14,3.85h14.86l29.42,0,57.53,0,28,0c4.62,0,9.25.07,13.8-.06a21.65,21.65,0,0,0,12.37-4.8,23.06,23.06,0,0,0,4.46-4.95,21.53,21.53,0,0,0,2.74-6,23,23,0,0,0,.83-6.55v-6.68q0-13.31,0-26.31c0-69.32.07-131.75.1-184.18s.1-94.85.13-124.18c0-3.66,0-7.12,0-10.37a22.62,22.62,0,0,0-1.6-8.87,21.93,21.93,0,0,0-4.14-6.54,22,22,0,0,0-13.17-7,18.66,18.66,0,0,0-2.22-.2Z" style="fill:#263238"></path><path d="M307.89,88.34c0,.1-3.64.2-8.13.24s-8.12,0-8.12-.11,3.63-.2,8.12-.23S307.89,88.25,307.89,88.34Z" style="fill:#263238"></path><path d="M307.92,92.5c0,.09-3.63.2-8.12.24s-8.13,0-8.13-.11,3.64-.2,8.13-.24S307.92,92.4,307.92,92.5Z" style="fill:#263238"></path><path d="M308,96.66c0,.09-3.64.2-8.13.23s-8.12,0-8.12-.1,3.63-.2,8.12-.24S308,96.56,308,96.66Z" style="fill:#263238"></path><path d="M160.09,101.4l.34,0,.94,0,3.46-.08-.09.09c0-.77,0-1.61,0-2.51,0-.47,0-.91,0-1.45a1.34,1.34,0,0,1,1.17-1.07c.56,0,1,0,1.66,0a1.35,1.35,0,0,1,1.13,1.34c0,1.17,0,2.4,0,3.67l-.16-.16,4.38,0-.17.17c0-1.77,0-3.59,0-5.46,0-.46,0-.93,0-1.39a1.42,1.42,0,0,0-.61-1l-1.91-1.89-1.85-1.82-.9-.88a2,2,0,0,0-.9-.68,1.17,1.17,0,0,0-1,.19c-.27.23-.55.55-.82.81l-1.57,1.58c-1,1-2,2-2.76,2.85a3,3,0,0,0-.22,1.63c0,.55,0,1.06,0,1.55,0,.94,0,1.77,0,2.48s0,1.16,0,1.59,0,.56,0,.57a3.2,3.2,0,0,1,0-.52c0-.43,0-.94-.05-1.57s0-1.55,0-2.5c0-.5,0-1,0-1.58,0-.28,0-.56,0-.86a1.76,1.76,0,0,1,.25-.91c.81-1,1.77-1.87,2.77-2.93l1.56-1.6c.28-.27.51-.55.84-.83a1.47,1.47,0,0,1,1.27-.25,2.28,2.28,0,0,1,1.05.75l.9.88,1.85,1.81,1.92,1.89a3.65,3.65,0,0,1,.49.53,1.43,1.43,0,0,1,.23.73c0,.47,0,.93,0,1.4,0,1.87,0,3.69,0,5.45v.17h-.17l-4.37,0h-.16v-.16c0-1.27,0-2.49,0-3.67a1.07,1.07,0,0,0-.89-1.06c-.5,0-1.1,0-1.59,0a1.05,1.05,0,0,0-.94.85c0,.44,0,1,0,1.4v2.61h-.09l-3.53,0h-.92A1.45,1.45,0,0,1,160.09,101.4Z" style="fill:#263238"></path><path d="M222.7,111.64c0,1.16-.92,1.83-2.68,1.83h-3.47v-6.7h3.27c1.68,0,2.54.7,2.54,1.74a1.61,1.61,0,0,1-.89,1.48A1.65,1.65,0,0,1,222.7,111.64Zm-4.61-3.7v1.58h1.54c.76,0,1.17-.27,1.17-.8s-.41-.78-1.17-.78Zm3,3.54c0-.56-.43-.83-1.24-.83h-1.81v1.66h1.81C220.71,112.31,221.14,112.06,221.14,111.48Z" style="fill:#263238"></path><path d="M223.39,110.9a2.84,2.84,0,1,1,2.84,2.65A2.66,2.66,0,0,1,223.39,110.9Zm4.15,0a1.32,1.32,0,1,0-1.31,1.42A1.31,1.31,0,0,0,227.54,110.9Z" style="fill:#263238"></path><path d="M229.67,110.9a2.84,2.84,0,1,1,2.83,2.65A2.65,2.65,0,0,1,229.67,110.9Zm4.15,0a1.32,1.32,0,1,0-1.32,1.42A1.31,1.31,0,0,0,233.82,110.9Z" style="fill:#263238"></path><path d="M238.54,111.45l-.72.71v1.31h-1.49v-7.11h1.49v4l2.19-2.07h1.78l-2.15,2.18,2.34,3h-1.81Z" style="fill:#263238"></path><path d="M242.43,106.77a.86.86,0,0,1,.93-.84.84.84,0,0,1,.93.81.93.93,0,0,1-1.86,0Zm.18,1.55h1.5v5.15h-1.5Z" style="fill:#263238"></path><path d="M250.77,110.52v3h-1.5v-2.72c0-.83-.38-1.21-1-1.21S247,110,247,110.93v2.54H245.5v-5.15h1.43v.6a2.24,2.24,0,0,1,1.7-.68A2,2,0,0,1,250.77,110.52Z" style="fill:#263238"></path><path d="M257.5,108.32v4.29c0,1.92-1,2.8-2.9,2.8a4.27,4.27,0,0,1-2.53-.71l.6-1.07a3.11,3.11,0,0,0,1.82.58c1,0,1.51-.48,1.51-1.41v-.22a2.12,2.12,0,0,1-1.63.64,2.49,2.49,0,1,1,0-5,2.07,2.07,0,0,1,1.71.74v-.66ZM256,110.73a1.36,1.36,0,1,0-1.35,1.27A1.25,1.25,0,0,0,256,110.73Z" style="fill:#263238"></path><rect x="156.31" y="199.55" width="61.88" height="55.83" rx="2.55" style="fill:#818CF8"></rect><path d="M236.49,204.86v5.51h-1.28v-2.26h-2.5v2.26h-1.27v-5.51h1.27V207h2.5v-2.17Z" style="fill:#263238"></path><path d="M237.4,208.25a2.33,2.33,0,1,1,2.33,2.18A2.18,2.18,0,0,1,237.4,208.25Zm3.4,0a1.08,1.08,0,1,0-1.07,1.17A1.06,1.06,0,0,0,240.8,208.25Z" style="fill:#263238"></path><path d="M245.6,210.16a1.68,1.68,0,0,1-1,.27,1.39,1.39,0,0,1-1.58-1.52v-1.74h-.66v-.94H243v-1h1.23v1h1.05v.94h-1.05v1.73a.49.49,0,0,0,.52.56.85.85,0,0,0,.5-.16Z" style="fill:#263238"></path><path d="M250.29,208.6h-3.21a1.14,1.14,0,0,0,1.21.85,1.49,1.49,0,0,0,1.07-.41l.65.71a2.48,2.48,0,0,1-4.17-1.5,2.16,2.16,0,0,1,2.26-2.18,2.1,2.1,0,0,1,2.21,2.2C250.31,208.36,250.29,208.49,250.29,208.6Zm-3.23-.72h2.09a1.06,1.06,0,0,0-2.09,0Z" style="fill:#263238"></path><path d="M251.13,204.53h1.23v5.84h-1.23Z" style="fill:#263238"></path><polygon points="258.67 205.83 259.13 206.75 260.14 206.9 259.41 207.62 259.58 208.63 258.67 208.15 257.76 208.63 257.94 207.62 257.2 206.9 258.22 206.75 258.67 205.83" style="fill:#818CF8"></polygon><polygon points="262.63 205.83 263.08 206.75 264.1 206.9 263.37 207.62 263.54 208.63 262.63 208.15 261.72 208.63 261.9 207.62 261.16 206.9 262.18 206.75 262.63 205.83" style="fill:#818CF8"></polygon><polygon points="266.59 205.83 267.05 206.75 268.06 206.9 267.33 207.62 267.5 208.63 266.59 208.15 265.68 208.63 265.86 207.62 265.12 206.9 266.14 206.75 266.59 205.83" style="fill:#818CF8"></polygon><polygon points="270.55 205.83 271.01 206.75 272.02 206.9 271.29 207.62 271.46 208.63 270.55 208.15 269.64 208.63 269.82 207.62 269.08 206.9 270.1 206.75 270.55 205.83" style="fill:#818CF8"></polygon><polygon points="274.51 205.83 274.97 206.75 275.98 206.9 275.25 207.62 275.42 208.63 274.51 208.15 273.6 208.63 273.78 207.62 273.04 206.9 274.06 206.75 274.51 205.83" style="fill:#818CF8"></polygon><path d="M275.28,215.89c0,.15-9.59.26-21.42.26s-21.42-.11-21.42-.26,9.59-.26,21.42-.26S275.28,215.75,275.28,215.89Z" style="fill:#e0e0e0"></path><path d="M309,223.16c0,.14-17.35.26-38.73.26s-38.74-.12-38.74-.26,17.34-.26,38.74-.26S309,223,309,223.16Z" style="fill:#263238"></path><path d="M270.35,230.6c0,.14-8.52.26-19,.26s-19-.12-19-.26,8.51-.26,19-.26S270.35,230.45,270.35,230.6Z" style="fill:#263238"></path><rect x="230.83" y="238.55" width="45.2" height="14.38" rx="6.01" style="fill:#818CF8"></rect><path d="M249.86,246.35c0,.69-.53,1.09-1.56,1.09h-1.94v-4.07h1.83c.93,0,1.46.4,1.46,1.06a1,1,0,0,1-.55.9A1,1,0,0,1,249.86,246.35Zm-2.92-2.5v1.3h1.2c.59,0,.93-.22.93-.65s-.34-.65-.93-.65Zm2.33,2.45c0-.47-.34-.68-1-.68h-1.34V247h1.34C248.93,247,249.27,246.77,249.27,246.3Z" style="fill:#fff"></path><path d="M250.39,245.9a1.61,1.61,0,1,1,1.61,1.58A1.53,1.53,0,0,1,250.39,245.9Zm2.64,0a1,1,0,1,0-2.07,0,1,1,0,1,0,2.07,0Z" style="fill:#fff"></path><path d="M254.09,245.9a1.6,1.6,0,1,1,1.6,1.58A1.53,1.53,0,0,1,254.09,245.9Zm2.63,0a1,1,0,1,0-2.07,0,1,1,0,1,0,2.07,0Z" style="fill:#fff"></path><path d="M259.26,246l-.64.59v.84h-.56v-4.31h.56v2.77l1.68-1.54H261l-1.29,1.28,1.42,1.8h-.69Z" style="fill:#fff"></path><path d="M195.19,245.44a5.4,5.4,0,0,1,0-.63c0-.43,0-1,0-1.76,0-1.57,0-3.79-.06-6.58,0-5.64-.07-13.57-.12-22.9l.24.23-21.49,0c-.06,0,.49-.49.26-.26h0v8.79c0,2.86,0,5.65,0,8.33,0,5.37,0,10.34,0,14.74l-.21-.21,15.6.11,4.34,0,1.15,0a2,2,0,0,1,.41,0,2.37,2.37,0,0,1-.37,0l-1.11,0-4.29,0-15.73.11h-.2v-.21c0-4.4,0-9.37,0-14.74,0-2.68,0-5.47,0-8.33V218c0-.74,0-1.47,0-2.22v-2.22h0c-.23.23.32-.32.27-.26l21.49,0h.24v.24c-.05,9.39-.09,17.38-.12,23.06,0,2.76-.05,5-.07,6.52,0,.72,0,1.29,0,1.72A3.92,3.92,0,0,1,195.19,245.44Z" style="fill:#fff"></path><path d="M191,209.33a28.65,28.65,0,0,1,.24,4.24v.23H191l-2.84,0-.26-.27h0V212.4c0-.38,0-.75,0-1.11l0-2v-.21h.21a15.49,15.49,0,0,1,2.84.21,21.23,21.23,0,0,1-2.84.21l.21-.21c0,.62,0,1.27,0,2,0,.36,0,.73,0,1.11v1.15h0c.23.24-.32-.31-.26-.25l2.84,0-.24.24A35.93,35.93,0,0,1,191,209.33Z" style="fill:#fff"></path><path d="M203.22,245.61a2.71,2.71,0,0,1-.51,0h-1.56l-6,0H195v-.15c-.06-7.17-.1-18.78-.1-31.87v-.26h8.55v.26c0,9.14-.08,17.17-.11,23,0,2.81-.06,5.08-.08,6.7,0,.74,0,1.33,0,1.78a4.17,4.17,0,0,1,0,.6,6.13,6.13,0,0,1,0-.66c0-.47,0-1.08,0-1.84,0-1.63,0-3.92-.07-6.76,0-5.75-.07-13.71-.12-22.78l.26.25h-8l.26-.26c0,13.09,0,24.7-.11,31.87l-.15-.16,5.87.21,1.59.07A4.19,4.19,0,0,1,203.22,245.61Z" style="fill:#fff"></path><rect x="177.12" y="217.56" width="3.33" height="3.33" style="fill:#fff"></rect><rect x="182.78" y="217.56" width="3.33" height="3.33" style="fill:#fff"></rect><rect x="188.43" y="217.56" width="3.33" height="3.33" style="fill:#fff"></rect><rect x="177.12" y="223.29" width="3.33" height="3.33" style="fill:#fff"></rect><rect x="182.78" y="223.29" width="3.33" height="3.33" style="fill:#fff"></rect><rect x="188.43" y="223.29" width="3.33" height="3.33" style="fill:#fff"></rect><rect x="177.12" y="229.02" width="3.33" height="3.33" style="fill:#fff"></rect><rect x="182.78" y="229.02" width="3.33" height="3.33" style="fill:#fff"></rect><rect x="188.43" y="229.02" width="3.33" height="3.33" style="fill:#fff"></rect><rect x="177.12" y="234.75" width="3.33" height="3.33" style="fill:#fff"></rect><rect x="182.78" y="234.75" width="3.33" height="3.33" style="fill:#fff"></rect><rect x="188.43" y="234.75" width="3.33" height="3.33" style="fill:#fff"></rect><rect x="197.26" y="217.56" width="3.33" height="3.33" style="fill:#fff"></rect><rect x="197.26" y="223.29" width="3.33" height="3.33" style="fill:#fff"></rect><rect x="197.26" y="229.02" width="3.33" height="3.33" style="fill:#fff"></rect><rect x="197.26" y="234.75" width="3.33" height="3.33" style="fill:#fff"></rect><rect x="183.16" y="240.28" width="3.26" height="5.16" style="fill:#fff"></rect><path d="M210.35,245.44c0,.14-10.34.26-23.1.26s-23.09-.12-23.09-.26,10.34-.26,23.09-.26S210.35,245.3,210.35,245.44Z" style="fill:#fff"></path><path d="M312.85,263.12a6.15,6.15,0,0,0,1.22-.18,5,5,0,0,0,2.88-2,4.85,4.85,0,0,0,.84-2.47c0-1,0-2.06,0-3.22q0-3.51,0-8.06c0-12.13,0-29.67-.09-51.34a6.44,6.44,0,0,0-.18-2,4.93,4.93,0,0,0-.91-1.76,4.81,4.81,0,0,0-3.51-1.76h-8.68l-18.44,0-40.69,0-93.24,0a4.78,4.78,0,0,0-4.49,3.17,8,8,0,0,0-.28,3v3.07q0,6.12,0,12.16v23.79c0,7.79,0,15.45,0,22.94a4.81,4.81,0,0,0,3,4.07,5,5,0,0,0,1.28.31c.42,0,.89,0,1.36,0h13.64l76.14.06L294,263l14,.05,3.63,0,1.23,0-1.23,0-3.63,0-14,.05-51.34.08-76.14.05H152.91c-.47,0-.92,0-1.41,0a5.77,5.77,0,0,1-1.42-.34,5.29,5.29,0,0,1-3.3-4.49q0-11.26,0-23v-39c0-.52,0-1,0-1.55a5,5,0,0,1,.31-1.58,5.3,5.3,0,0,1,5-3.52l93.24,0,40.69,0h18.44l8.7,0a5.23,5.23,0,0,1,3.78,1.91,5.14,5.14,0,0,1,1,1.9,7,7,0,0,1,.19,2.07c0,21.67-.06,39.21-.08,51.34q0,4.54,0,8.06c0,1.17,0,2.24,0,3.23a5,5,0,0,1-3.84,4.54,3.88,3.88,0,0,1-.91.13Z" style="fill:#818CF8"></path><rect x="154.48" y="282.09" width="61.88" height="55.83" rx="2.55" style="fill:#818CF8"></rect><path d="M234.66,287.4v5.51h-1.28v-2.26h-2.5v2.26H229.6V287.4h1.28v2.17h2.5V287.4Z" style="fill:#263238"></path><path d="M235.56,290.79a2.33,2.33,0,1,1,2.33,2.18A2.18,2.18,0,0,1,235.56,290.79Zm3.41,0a1.08,1.08,0,1,0-1.08,1.17A1.07,1.07,0,0,0,239,290.79Z" style="fill:#263238"></path><path d="M243.77,292.7a1.72,1.72,0,0,1-1,.27,1.4,1.4,0,0,1-1.59-1.52v-1.74h-.65v-.94h.65v-1h1.23v1h1.06v.94h-1.06v1.73a.5.5,0,0,0,.53.56.88.88,0,0,0,.5-.16Z" style="fill:#263238"></path><path d="M248.45,291.14h-3.2a1.12,1.12,0,0,0,1.21.85,1.45,1.45,0,0,0,1.06-.41l.66.71a2.23,2.23,0,0,1-1.75.68,2.2,2.2,0,0,1-2.42-2.18,2.16,2.16,0,0,1,2.26-2.18,2.09,2.09,0,0,1,2.2,2.2C248.47,290.9,248.46,291,248.45,291.14Zm-3.22-.72h2.09a1.06,1.06,0,0,0-2.09,0Z" style="fill:#263238"></path><path d="M249.29,287.07h1.23v5.84h-1.23Z" style="fill:#263238"></path><polygon points="256.84 288.37 257.29 289.29 258.31 289.44 257.57 290.16 257.75 291.17 256.84 290.69 255.93 291.17 256.1 290.16 255.37 289.44 256.38 289.29 256.84 288.37" style="fill:#818CF8"></polygon><polygon points="260.8 288.37 261.25 289.29 262.27 289.44 261.53 290.16 261.71 291.17 260.8 290.69 259.89 291.17 260.06 290.16 259.33 289.44 260.34 289.29 260.8 288.37" style="fill:#818CF8"></polygon><polygon points="264.76 288.37 265.21 289.29 266.23 289.44 265.49 290.16 265.67 291.17 264.76 290.69 263.85 291.17 264.02 290.16 263.29 289.44 264.3 289.29 264.76 288.37" style="fill:#818CF8"></polygon><polygon points="268.72 288.37 269.17 289.29 270.19 289.44 269.45 290.16 269.63 291.17 268.72 290.69 267.81 291.17 267.98 290.16 267.25 289.44 268.26 289.29 268.72 288.37" style="fill:#e0e0e0"></polygon><polygon points="272.68 288.37 273.13 289.29 274.15 289.44 273.41 290.16 273.59 291.17 272.68 290.69 271.77 291.17 271.94 290.16 271.21 289.44 272.22 289.29 272.68 288.37" style="fill:#e0e0e0"></polygon><path d="M273.44,298.43c0,.15-9.59.26-21.41.26s-21.42-.11-21.42-.26,9.59-.26,21.42-.26S273.44,298.29,273.44,298.43Z" style="fill:#e0e0e0"></path><path d="M307.18,305.7c0,.14-17.34.26-38.73.26s-38.73-.12-38.73-.26,17.34-.26,38.73-.26S307.18,305.55,307.18,305.7Z" style="fill:#263238"></path><path d="M268.51,313.14c0,.14-8.51.26-19,.26s-19-.12-19-.26,8.51-.26,19-.26S268.51,313,268.51,313.14Z" style="fill:#263238"></path><path d="M268.18,335.46s.39,0,1.09-.15a6.05,6.05,0,0,0,2.77-1.38,5.88,5.88,0,0,0,2-4.33c0-1,0-2,0-3.11a6,6,0,0,0-1.32-3.1,5.88,5.88,0,0,0-3.12-1.93,7.28,7.28,0,0,0-2-.16h-2.13l-9.24,0-21.18,0a5.78,5.78,0,0,0-5.65,4.65,16.12,16.12,0,0,0-.11,2.62,7.78,7.78,0,0,0,.26,2.53,5.78,5.78,0,0,0,5.45,4.07l17.29.06,11.66.08,3.17.05.82,0,.28,0a1,1,0,0,1-.28,0l-.82,0-3.17,0-11.66.09-17.3.05a6.27,6.27,0,0,1-5.92-4.4,8.15,8.15,0,0,1-.29-2.68,15.74,15.74,0,0,1,.12-2.72,6.22,6.22,0,0,1,1.15-2.57,6.28,6.28,0,0,1,5-2.5l21.18,0,9.24,0h2.13a8.14,8.14,0,0,1,2.09.19,6.24,6.24,0,0,1,3.32,2.09,6.32,6.32,0,0,1,1.36,3.29c.06,1.15,0,2.16,0,3.15a6.11,6.11,0,0,1-2.17,4.48,5.89,5.89,0,0,1-2.88,1.33,4.94,4.94,0,0,1-.82.07A.94.94,0,0,1,268.18,335.46Z" style="fill:#818CF8"></path><path d="M248,328.88c0,.7-.53,1.1-1.56,1.1h-1.94v-4.07h1.82c.94,0,1.46.4,1.46,1a1,1,0,0,1-.54.91A1,1,0,0,1,248,328.88Zm-2.92-2.5v1.31h1.19c.59,0,.93-.23.93-.66s-.34-.65-.93-.65Zm2.33,2.46c0-.47-.35-.68-1-.68h-1.34v1.35h1.34C247.09,329.51,247.44,329.31,247.44,328.84Z" style="fill:#818CF8"></path><path d="M248.56,328.44a1.6,1.6,0,1,1,1.61,1.58A1.53,1.53,0,0,1,248.56,328.44Zm2.64,0a1,1,0,1,0-2.08,0,1,1,0,1,0,2.08,0Z" style="fill:#818CF8"></path><path d="M252.25,328.44a1.6,1.6,0,1,1,1.61,1.58A1.53,1.53,0,0,1,252.25,328.44Zm2.64,0a1,1,0,1,0-2.07,0,1,1,0,1,0,2.07,0Z" style="fill:#818CF8"></path><path d="M257.42,328.55l-.64.59V330h-.55v-4.31h.55v2.76l1.68-1.53h.68l-1.3,1.27,1.43,1.81h-.69Z" style="fill:#818CF8"></path><path d="M193.35,328s0-.23,0-.63,0-1,0-1.76c0-1.57,0-3.79-.07-6.58,0-5.64-.07-13.57-.11-22.91l.23.24-21.49,0,.26-.25h0v8.79c0,2.86,0,5.65,0,8.33,0,5.37,0,10.33,0,14.74l-.21-.21,15.59.11,4.35.05,1.15,0a1.79,1.79,0,0,1,.4,0,2.13,2.13,0,0,1-.36,0l-1.11,0-4.3.06-15.72.11h-.21V328c0-4.41,0-9.37,0-14.74,0-2.68,0-5.47,0-8.33v-8.79h0c-.23.23.32-.32.26-.27l21.49,0h.24v.23c-.05,9.4-.09,17.39-.12,23.06,0,2.77,0,5-.06,6.53,0,.72,0,1.29,0,1.72A3.92,3.92,0,0,1,193.35,328Z" style="fill:#fff"></path><path d="M189.14,291.87a30.26,30.26,0,0,1,.24,4.23v.24h-.24l-2.85,0-.26-.26h0v-1.16c0-.37,0-.74,0-1.1,0-.69,0-1.34,0-2v-.22h.2a15.84,15.84,0,0,1,2.85.21,21.7,21.7,0,0,1-2.85.21l.21-.21,0,2c0,.36,0,.73,0,1.1v1.16h0l-.26-.26,2.85,0-.24.23A35.85,35.85,0,0,1,189.14,291.87Z" style="fill:#fff"></path><path d="M201.38,328.15a4.44,4.44,0,0,1-.51,0h-1.55l-6,0h-.15V328c-.06-7.17-.11-18.79-.11-31.88v-.26h8.55v.25c0,9.15-.09,17.17-.12,23,0,2.81-.05,5.08-.07,6.7,0,.74,0,1.33,0,1.78a2.41,2.41,0,0,1,0,.6,6.13,6.13,0,0,1,0-.66c0-.47,0-1.08,0-1.84,0-1.64,0-3.92-.07-6.76,0-5.75-.07-13.71-.12-22.79l.25.26h-8l.26-.26c0,13.09,0,24.71-.1,31.88l-.15-.16,5.87.21,1.59.07A3.9,3.9,0,0,1,201.38,328.15Z" style="fill:#fff"></path><rect x="175.29" y="300.1" width="3.33" height="3.33" style="fill:#fff"></rect><rect x="180.94" y="300.1" width="3.33" height="3.33" style="fill:#fff"></rect><rect x="186.6" y="300.1" width="3.33" height="3.33" style="fill:#fff"></rect><rect x="175.29" y="305.83" width="3.33" height="3.33" style="fill:#fff"></rect><rect x="180.94" y="305.83" width="3.33" height="3.33" style="fill:#fff"></rect><rect x="186.6" y="305.83" width="3.33" height="3.33" style="fill:#fff"></rect><rect x="175.29" y="311.56" width="3.33" height="3.33" style="fill:#fff"></rect><rect x="180.94" y="311.56" width="3.33" height="3.33" style="fill:#fff"></rect><rect x="186.6" y="311.56" width="3.33" height="3.33" style="fill:#fff"></rect><rect x="175.29" y="317.29" width="3.33" height="3.33" style="fill:#fff"></rect><rect x="180.94" y="317.29" width="3.33" height="3.33" style="fill:#fff"></rect><rect x="186.6" y="317.29" width="3.33" height="3.33" style="fill:#fff"></rect><rect x="195.42" y="300.1" width="3.33" height="3.33" style="fill:#fff"></rect><rect x="195.42" y="305.83" width="3.33" height="3.33" style="fill:#fff"></rect><rect x="195.42" y="311.56" width="3.33" height="3.33" style="fill:#fff"></rect><rect x="195.42" y="317.29" width="3.33" height="3.33" style="fill:#fff"></rect><rect x="181.33" y="322.82" width="3.26" height="5.16" style="fill:#fff"></rect><path d="M208.52,328c0,.14-10.35.26-23.1.26s-23.1-.12-23.1-.26,10.34-.26,23.1-.26S208.52,327.83,208.52,328Z" style="fill:#fff"></path><rect x="155.24" y="364.08" width="61.88" height="55.83" rx="2.55" style="fill:#818CF8"></rect><path d="M235.42,369.39v5.51h-1.28v-2.26h-2.5v2.26h-1.28v-5.51h1.28v2.17h2.5v-2.17Z" style="fill:#263238"></path><path d="M236.32,372.78a2.33,2.33,0,1,1,2.33,2.19A2.19,2.19,0,0,1,236.32,372.78Zm3.41,0a1.08,1.08,0,1,0-1.08,1.18A1.07,1.07,0,0,0,239.73,372.78Z" style="fill:#263238"></path><path d="M244.53,374.7a1.76,1.76,0,0,1-1,.27,1.4,1.4,0,0,1-1.58-1.53v-1.73h-.66v-.95H242v-1h1.22v1h1.06v.95h-1.06v1.72a.5.5,0,0,0,.53.56.88.88,0,0,0,.5-.16Z" style="fill:#263238"></path><path d="M249.21,373.13H246a1.13,1.13,0,0,0,1.21.85,1.41,1.41,0,0,0,1.06-.41l.66.71a2.24,2.24,0,0,1-1.75.69,2.21,2.21,0,0,1-2.42-2.19A2.16,2.16,0,0,1,247,370.6a2.1,2.1,0,0,1,2.21,2.2C249.24,372.89,249.22,373,249.21,373.13Zm-3.22-.72h2.09a1.06,1.06,0,0,0-2.09,0Z" style="fill:#263238"></path><path d="M250.06,369.06h1.22v5.84h-1.22Z" style="fill:#263238"></path><polygon points="257.6 370.37 258.05 371.29 259.07 371.43 258.33 372.15 258.51 373.16 257.6 372.68 256.69 373.16 256.87 372.15 256.13 371.43 257.14 371.29 257.6 370.37" style="fill:#818CF8"></polygon><polygon points="261.56 370.37 262.01 371.29 263.03 371.43 262.29 372.15 262.47 373.16 261.56 372.68 260.65 373.16 260.82 372.15 260.09 371.43 261.11 371.29 261.56 370.37" style="fill:#818CF8"></polygon><polygon points="265.52 370.37 265.97 371.29 266.99 371.43 266.25 372.15 266.43 373.16 265.52 372.68 264.61 373.16 264.79 372.15 264.05 371.43 265.07 371.29 265.52 370.37" style="fill:#e0e0e0"></polygon><polygon points="269.48 370.37 269.93 371.29 270.95 371.43 270.21 372.15 270.39 373.16 269.48 372.68 268.57 373.16 268.75 372.15 268.01 371.43 269.03 371.29 269.48 370.37" style="fill:#e0e0e0"></polygon><polygon points="273.44 370.37 273.89 371.29 274.91 371.43 274.18 372.15 274.35 373.16 273.44 372.68 272.53 373.16 272.71 372.15 271.97 371.43 272.99 371.29 273.44 370.37" style="fill:#e0e0e0"></polygon><path d="M274.21,380.43c0,.14-9.59.26-21.42.26s-21.42-.12-21.42-.26,9.59-.27,21.42-.27S274.21,380.28,274.21,380.43Z" style="fill:#e0e0e0"></path><path d="M308,387.69c0,.14-17.35.26-38.74.26s-38.73-.12-38.73-.26,17.34-.26,38.73-.26S308,387.55,308,387.69Z" style="fill:#263238"></path><path d="M269.27,395.13c0,.14-8.51.26-19,.26s-19-.12-19-.26,8.51-.26,19-.26S269.27,395,269.27,395.13Z" style="fill:#263238"></path><path d="M269,417.46s.38,0,1.09-.16a6,6,0,0,0,2.76-1.38,5.9,5.9,0,0,0,2-4.33c0-1,0-2-.05-3.11a5.81,5.81,0,0,0-4.44-5,8.07,8.07,0,0,0-2-.16h-2.14l-9.24,0-21.17,0a5.78,5.78,0,0,0-4.6,2.3,5.55,5.55,0,0,0-1.05,2.35,14.29,14.29,0,0,0-.11,2.63,7.57,7.57,0,0,0,.25,2.53,5.93,5.93,0,0,0,1.21,2.13,5.73,5.73,0,0,0,4.24,1.93l17.29.06,11.66.09,3.17,0,.83,0,.28,0a1.58,1.58,0,0,1-.28,0l-.83,0-3.17.05-11.66.08-17.3.05a6.24,6.24,0,0,1-4.6-2.08,6.33,6.33,0,0,1-1.32-2.31,7.93,7.93,0,0,1-.28-2.68,14.89,14.89,0,0,1,.11-2.73,6.29,6.29,0,0,1,6.16-5.07l21.17,0,9.24,0h2.14a8.18,8.18,0,0,1,2.09.19,6.17,6.17,0,0,1,4.67,5.39c.06,1.14,0,2.16,0,3.15a6.09,6.09,0,0,1-2.17,4.47,5.89,5.89,0,0,1-2.88,1.33,4,4,0,0,1-.82.07A1.16,1.16,0,0,1,269,417.46Z" style="fill:#818CF8"></path><path d="M248.79,410.88c0,.69-.53,1.09-1.56,1.09h-1.94V407.9h1.83c.93,0,1.45.4,1.45,1.06a.94.94,0,0,1-.54.9A1,1,0,0,1,248.79,410.88Zm-2.92-2.5v1.3h1.19c.6,0,.93-.22.93-.65s-.33-.65-.93-.65Zm2.33,2.45c0-.47-.35-.68-1-.68h-1.34v1.35h1.34C247.85,411.5,248.2,411.3,248.2,410.83Z" style="fill:#818CF8"></path><path d="M249.32,410.43a1.61,1.61,0,1,1,1.61,1.58A1.53,1.53,0,0,1,249.32,410.43Zm2.64,0a1,1,0,1,0-1,1.09A1,1,0,0,0,252,410.43Z" style="fill:#818CF8"></path><path d="M253,410.43a1.61,1.61,0,1,1,1.61,1.58A1.53,1.53,0,0,1,253,410.43Zm2.64,0a1,1,0,1,0-2.07,0,1,1,0,1,0,2.07,0Z" style="fill:#818CF8"></path><path d="M258.19,410.54l-.64.59V412H257v-4.31h.56v2.77l1.68-1.54h.67l-1.3,1.28L260,412h-.69Z" style="fill:#818CF8"></path><path d="M194.12,410a5.4,5.4,0,0,1,0-.63c0-.43,0-1,0-1.76,0-1.57,0-3.79-.06-6.58,0-5.64-.07-13.57-.12-22.9l.24.24-21.49,0c-.07.05.49-.49.25-.26h0v8.79c0,2.87,0,5.65,0,8.34,0,5.36,0,10.33,0,14.73l-.21-.21,15.6.11,4.34.05,1.15,0,.41,0a1.46,1.46,0,0,1-.37,0l-1.11,0-4.29.05-15.73.11h-.2V410c0-4.4,0-9.37,0-14.73q0-4,0-8.34c0-1.43,0-2.88,0-4.35v-4.44h0c-.23.23.32-.32.27-.26l21.49,0h.24v.24c0,9.4-.08,17.38-.11,23.06,0,2.76-.05,5-.07,6.52,0,.72,0,1.29,0,1.72A3.39,3.39,0,0,1,194.12,410Z" style="fill:#fff"></path><path d="M189.9,373.86a28.65,28.65,0,0,1,.24,4.24v.23h-.24l-2.84,0-.26-.26h0v-1.15c0-.38,0-.75,0-1.11l0-2v-.21h.21a15.78,15.78,0,0,1,2.84.21,21.64,21.64,0,0,1-2.84.21l.2-.21c0,.62,0,1.28,0,2,0,.36,0,.73,0,1.11,0,.19,0,.38,0,.58v.57h0l-.26-.26,2.84,0-.24.24A36.13,36.13,0,0,1,189.9,373.86Z" style="fill:#fff"></path><path d="M202.15,410.14a2.71,2.71,0,0,1-.51,0h-1.56l-6,0H194V410c-.06-7.17-.1-18.78-.1-31.87v-.26h8.54v.26c0,9.14-.08,17.17-.11,23,0,2.82-.06,5.08-.08,6.7,0,.74,0,1.33,0,1.79a4.08,4.08,0,0,1,0,.59s0-.24,0-.66,0-1.07,0-1.84c0-1.63,0-3.92-.07-6.76,0-5.75-.07-13.71-.12-22.78l.26.25h-8l.26-.26c0,13.09,0,24.7-.11,31.87l-.15-.15L200,410l1.59.07Z" style="fill:#fff"></path><rect x="176.05" y="382.09" width="3.33" height="3.33" style="fill:#fff"></rect><rect x="181.7" y="382.09" width="3.33" height="3.33" style="fill:#fff"></rect><rect x="187.36" y="382.09" width="3.33" height="3.33" style="fill:#fff"></rect><rect x="176.05" y="387.82" width="3.33" height="3.33" style="fill:#fff"></rect><rect x="181.7" y="387.82" width="3.33" height="3.33" style="fill:#fff"></rect><rect x="187.36" y="387.82" width="3.33" height="3.33" style="fill:#fff"></rect><rect x="176.05" y="393.55" width="3.33" height="3.33" style="fill:#fff"></rect><rect x="181.7" y="393.55" width="3.33" height="3.33" style="fill:#fff"></rect><rect x="187.36" y="393.55" width="3.33" height="3.33" style="fill:#fff"></rect><rect x="176.05" y="399.28" width="3.33" height="3.33" style="fill:#fff"></rect><rect x="181.7" y="399.28" width="3.33" height="3.33" style="fill:#fff"></rect><rect x="187.36" y="399.28" width="3.33" height="3.33" style="fill:#fff"></rect><rect x="196.19" y="382.09" width="3.33" height="3.33" style="fill:#fff"></rect><rect x="196.19" y="387.82" width="3.33" height="3.33" style="fill:#fff"></rect><rect x="196.19" y="393.55" width="3.33" height="3.33" style="fill:#fff"></rect><rect x="196.19" y="399.28" width="3.33" height="3.33" style="fill:#fff"></rect><rect x="182.09" y="404.81" width="3.26" height="5.16" style="fill:#fff"></rect><path d="M209.28,410c0,.14-10.34.26-23.1.26s-23.1-.12-23.1-.26,10.34-.26,23.1-.26S209.28,409.83,209.28,410Z" style="fill:#fff"></path><path d="M167.68,125.58H294.87a7.09,7.09,0,0,1,7.09,7.09v7.12a7.1,7.1,0,0,1-7.1,7.1H167.68a7.09,7.09,0,0,1-7.09-7.09v-7.12A7.09,7.09,0,0,1,167.68,125.58Z" style="fill:#ebebeb"></path><path d="M291,134.84s0-.26-.16-.7a2.88,2.88,0,0,0-3.74-1.93,2.81,2.81,0,1,0,2.66,4.88,2.86,2.86,0,0,0,1.08-1.55c.13-.44.13-.7.16-.7s0,.06,0,.19a1.94,1.94,0,0,1-.05.54,2.92,2.92,0,0,1-1.06,1.71,3.08,3.08,0,1,1,0-4.88,2.93,2.93,0,0,1,1.06,1.7,2,2,0,0,1,.05.55C291.06,134.77,291.05,134.84,291,134.84Z" style="fill:#263238"></path><path d="M292.66,139.92a5.7,5.7,0,0,1-1.44-1.31,5.63,5.63,0,0,1-1.2-1.55,5.86,5.86,0,0,1,1.45,1.32A5.93,5.93,0,0,1,292.66,139.92Z" style="fill:#263238"></path><path d="M174.1,135.16h-1.3v-.47h3.14v.47h-1.3v3.33h-.54Z" style="fill:#263238"></path><path d="M175.89,137.05a1.5,1.5,0,1,1,1.5,1.48A1.43,1.43,0,0,1,175.89,137.05Zm2.47,0a1,1,0,1,0-1,1A.95.95,0,0,0,178.36,137.05Z" style="fill:#263238"></path><path d="M179.36,136a.36.36,0,0,1,.37-.37.35.35,0,0,1,.36.37.36.36,0,0,1-.36.37A.37.37,0,0,1,179.36,136Zm0,2.19a.36.36,0,0,1,.37-.37.35.35,0,0,1,.36.37.36.36,0,0,1-.36.38A.37.37,0,0,1,179.36,138.15Z" style="fill:#263238"></path><path d="M263.25,137.17c0,.14-16.21.26-36.2.26s-36.2-.12-36.2-.26,16.21-.26,36.2-.26S263.25,137,263.25,137.17Z" style="fill:#263238"></path><rect x="160.58" y="154.22" width="141.38" height="21.31" rx="7.09" style="fill:#ebebeb"></rect><path d="M291,164.47s0-.26-.16-.7a2.93,2.93,0,0,0-1.08-1.55,2.81,2.81,0,1,0,0,4.5,2.88,2.88,0,0,0,1.08-1.54c.13-.44.13-.71.16-.71s0,.07,0,.19a2,2,0,0,1-.05.55,2.93,2.93,0,0,1-1.06,1.7,3.05,3.05,0,0,1-2.91.48,3.09,3.09,0,0,1,0-5.83A3.05,3.05,0,0,1,290,162a2.9,2.9,0,0,1,1.06,1.7,1.94,1.94,0,0,1,.05.54C291.06,164.41,291.05,164.47,291,164.47Z" style="fill:#263238"></path><path d="M292.66,169.56a6.13,6.13,0,0,1-1.44-1.32,5.84,5.84,0,0,1-1.2-1.54,5.86,5.86,0,0,1,1.45,1.32A5.93,5.93,0,0,1,292.66,169.56Z" style="fill:#263238"></path><path d="M173.34,162.26H175a1.91,1.91,0,1,1,0,3.8h-1.61Zm1.57,3.33a1.43,1.43,0,1,0,0-2.86h-1v2.86Z" style="fill:#263238"></path><path d="M180,164.32v1.74h-.5v-.38a1.06,1.06,0,0,1-.94.41c-.65,0-1.07-.35-1.07-.85s.3-.84,1.16-.84h.83v-.1c0-.44-.26-.7-.78-.7a1.45,1.45,0,0,0-.91.31l-.22-.39a1.92,1.92,0,0,1,1.19-.37C179.59,163.15,180,163.53,180,164.32Zm-.52.86v-.4h-.81c-.51,0-.66.2-.66.44s.24.47.64.47A.84.84,0,0,0,179.52,165.18Z" style="fill:#263238"></path><path d="M182.62,165.89a.93.93,0,0,1-.63.2.82.82,0,0,1-.91-.9v-1.58h-.49v-.43h.49v-.63h.52v.63h.83v.43h-.83v1.56a.42.42,0,0,0,.45.48.69.69,0,0,0,.41-.13Z" style="fill:#263238"></path><path d="M185.75,164.79h-2.34a1,1,0,0,0,1,.85,1.12,1.12,0,0,0,.84-.35l.28.33a1.41,1.41,0,0,1-1.13.47,1.44,1.44,0,0,1-1.55-1.47,1.41,1.41,0,0,1,1.45-1.47,1.39,1.39,0,0,1,1.42,1.49S185.75,164.74,185.75,164.79Zm-2.34-.37h1.85a.9.9,0,0,0-.92-.83A.91.91,0,0,0,183.41,164.42Z" style="fill:#263238"></path><path d="M186.24,163.52a.37.37,0,0,1,.37-.37.38.38,0,0,1,0,.75A.37.37,0,0,1,186.24,163.52Zm0,2.2a.36.36,0,0,1,.37-.37.35.35,0,0,1,.35.37.36.36,0,0,1-.35.37A.37.37,0,0,1,186.24,165.72Z" style="fill:#263238"></path><path d="M204.75,164.8a21.66,21.66,0,0,1-4.77.26,21.72,21.72,0,0,1-4.78-.26,22.47,22.47,0,0,1,4.78-.26A22.42,22.42,0,0,1,204.75,164.8Z" style="fill:#263238"></path><path d="M241.24,164.87c0,.15-6.87.26-15.35.26s-15.34-.11-15.34-.26,6.87-.26,15.34-.26S241.24,164.73,241.24,164.87Z" style="fill:#263238"></path></g></svg>