<svg xmlns="http://www.w3.org/2000/svg" viewBox="0 0 500 500"><g id="freepik--Shadow--inject-45"><ellipse cx="250" cy="416.24" rx="193.89" ry="11.32" style="fill:#f5f5f5"></ellipse></g><g id="freepik--plant-3--inject-45"><path d="M157.18,231.82a13,13,0,0,0,3.62,1,11,11,0,0,0,7.33-1.7c3.43-2.22,5.51-6.11,5.18-9.69a.7.7,0,0,0-.71-.63,20.93,20.93,0,0,0-16.27,7.58c-.94-4-1.77-8.23-2.37-12.59a12.59,12.59,0,0,0,5.69,2.44,7.9,7.9,0,0,0,2.57-.11c4.47-.92,8-5.71,11.22-10.76a.77.77,0,0,0,.1-.62.67.67,0,0,0-.4-.45c-8.15-3.4-16.79,3.95-19.55,6.6a104.07,104.07,0,0,1-.67-11.06,30.13,30.13,0,0,0,5.35,1.18c4.39.51,8.08-.25,10.72-2.29,3.13-2.4,4.58-6.39,4.19-11.52a.71.71,0,0,0-.83-.64c-9.28,1.35-16.41,7.29-19.38,10.15,0-.66,0-1.32.07-2a.71.71,0,0,0-.13-.46,8.47,8.47,0,0,0-3.54-6.35c-2.33-1.51-5.59-1.71-9.7-.61a.9.9,0,0,0-.56.47.76.76,0,0,0,0,.69c.17.29,3.76,6.35,10.09,7.1a11.72,11.72,0,0,0,2.06,0c-.08,1.82-.11,3.65-.08,5.48A19.93,19.93,0,0,0,135,198.49a.9.9,0,0,0-.57.34.77.77,0,0,0-.14.62c1.26,6.19,4.31,10.36,8.16,11.14.17,0,.35.06.54.09,2,.23,4.86-.36,8.34-3.67a115.68,115.68,0,0,0,1.43,12.62c-3.36-2.17-11.07-6.14-17.93-2.28a.8.8,0,0,0-.37,1c2.79,5.64,5.83,8.58,9.31,9h.09c2.9.31,6-1.13,9.51-4.36.79,4.08,1.73,8,2.73,11.64-3.24-2.71-7.38-2.83-12.79-.4a.87.87,0,0,0-.48.58.7.7,0,0,0,.19.68c.23.23,4.16,4,9,4.55a9.38,9.38,0,0,0,5.39-.93,158.7,158.7,0,0,0,7.24,19.52.76.76,0,0,0,.62.43,1,1,0,0,0,.52-.09.9.9,0,0,0,.44-1.15A165,165,0,0,1,157.18,231.82Z" style="fill:#818CF8"></path><g style="opacity:0.6000000000000001"><path d="M157.18,231.82a13,13,0,0,0,3.62,1,11,11,0,0,0,7.33-1.7c3.43-2.22,5.51-6.11,5.18-9.69a.7.7,0,0,0-.71-.63,20.93,20.93,0,0,0-16.27,7.58c-.94-4-1.77-8.23-2.37-12.59a12.59,12.59,0,0,0,5.69,2.44,7.9,7.9,0,0,0,2.57-.11c4.47-.92,8-5.71,11.22-10.76a.77.77,0,0,0,.1-.62.67.67,0,0,0-.4-.45c-8.15-3.4-16.79,3.95-19.55,6.6a104.07,104.07,0,0,1-.67-11.06,30.13,30.13,0,0,0,5.35,1.18c4.39.51,8.08-.25,10.72-2.29,3.13-2.4,4.58-6.39,4.19-11.52a.71.71,0,0,0-.83-.64c-9.28,1.35-16.41,7.29-19.38,10.15,0-.66,0-1.32.07-2a.71.71,0,0,0-.13-.46,8.47,8.47,0,0,0-3.54-6.35c-2.33-1.51-5.59-1.71-9.7-.61a.9.9,0,0,0-.56.47.76.76,0,0,0,0,.69c.17.29,3.76,6.35,10.09,7.1a11.72,11.72,0,0,0,2.06,0c-.08,1.82-.11,3.65-.08,5.48A19.93,19.93,0,0,0,135,198.49a.9.9,0,0,0-.57.34.77.77,0,0,0-.14.62c1.26,6.19,4.31,10.36,8.16,11.14.17,0,.35.06.54.09,2,.23,4.86-.36,8.34-3.67a115.68,115.68,0,0,0,1.43,12.62c-3.36-2.17-11.07-6.14-17.93-2.28a.8.8,0,0,0-.37,1c2.79,5.64,5.83,8.58,9.31,9h.09c2.9.31,6-1.13,9.51-4.36.79,4.08,1.73,8,2.73,11.64-3.24-2.71-7.38-2.83-12.79-.4a.87.87,0,0,0-.48.58.7.7,0,0,0,.19.68c.23.23,4.16,4,9,4.55a9.38,9.38,0,0,0,5.39-.93,158.7,158.7,0,0,0,7.24,19.52.76.76,0,0,0,.62.43,1,1,0,0,0,.52-.09.9.9,0,0,0,.44-1.15A165,165,0,0,1,157.18,231.82Z"></path></g></g><g id="freepik--Computer--inject-45"><rect x="168.86" y="208.33" width="256.18" height="163.3" rx="7.19" style="fill:#818CF8"></rect><rect x="168.86" y="208.33" width="256.18" height="163.3" rx="7.19" style="opacity:0.6000000000000001"></rect><path d="M329.72,416.24H269.9c5.86-22.1,2.35-45.91-10.52-68H319.2C332.07,370.33,335.58,394.14,329.72,416.24Z" style="fill:#818CF8"></path><path d="M326.6,416.24H266.77c5.86-22.1,2.36-45.91-10.52-68h59.83C329,370.33,332.46,394.14,326.6,416.24Z" style="fill:#818CF8"></path><path d="M328.64,380H268.16a97.05,97.05,0,0,0-11.91-31.74h60.48A97.5,97.5,0,0,1,328.64,380Z" style="fill:#818CF8"></path><g style="opacity:0.4"><path d="M329.72,416.24H269.9c5.86-22.1,2.35-45.91-10.52-68H319.2C332.07,370.33,335.58,394.14,329.72,416.24Z"></path><path d="M326.6,416.24H266.77c5.86-22.1,2.36-45.91-10.52-68h59.83C329,370.33,332.46,394.14,326.6,416.24Z"></path><path d="M328.64,380H268.16a97.05,97.05,0,0,0-11.91-31.74h60.48A97.5,97.5,0,0,1,328.64,380Z"></path></g><path d="M326.6,416.24H266.77c5.86-22.1,2.36-45.91-10.52-68h59.83C329,370.33,332.46,394.14,326.6,416.24Z" style="fill:#818CF8"></path><path d="M326.6,416.24H266.77c5.86-22.1,2.36-45.91-10.52-68h59.83C329,370.33,332.46,394.14,326.6,416.24Z" style="opacity:0.2"></path><path d="M328,380h-59.9a97.89,97.89,0,0,0-11.8-31.74h59.9A97.89,97.89,0,0,1,328,380Z" style="opacity:0.2"></path><rect x="165.46" y="208.33" width="256.18" height="163.3" rx="7.19" style="fill:#818CF8"></rect><rect x="165.46" y="208.33" width="256.18" height="163.3" rx="7.19" style="opacity:0.30000000000000004"></rect><path d="M315.5,411.51H247.2a4.73,4.73,0,0,0-4.73,4.73h77.76A4.73,4.73,0,0,0,315.5,411.51Z" style="fill:#818CF8"></path><path d="M315.5,411.51H247.2a4.73,4.73,0,0,0-4.73,4.73h77.76A4.73,4.73,0,0,0,315.5,411.51Z" style="opacity:0.30000000000000004"></path><rect x="165.46" y="216.6" width="256.18" height="131.63" style="fill:#818CF8"></rect><rect x="165.37" y="216.6" width="256.18" height="131.63" style="fill:#fafafa;opacity:0.84"></rect><rect x="208.98" y="226.77" width="178.27" height="106.64" rx="2.84" style="fill:#818CF8;opacity:0.23"></rect><path d="M386.5,234.11v96.46a2.84,2.84,0,0,1-2.84,2.84H211.07a2.85,2.85,0,0,1-2.84-2.84V234.11Z" style="fill:#fafafa;opacity:0.67"></path><rect x="208.75" y="237.89" width="177.23" height="91.75" style="fill:#fff;opacity:0.41000000000000003"></rect><path d="M349.79,301.23a23.55,23.55,0,1,1,23.55-23.55A23.58,23.58,0,0,1,349.79,301.23Zm0-46.85a23.3,23.3,0,1,0,23.3,23.3A23.32,23.32,0,0,0,349.79,254.38Z" style="fill:#818CF8;opacity:0.19"></path><path d="M310.2,301.23a23.55,23.55,0,1,1,23.55-23.55A23.59,23.59,0,0,1,310.2,301.23Zm0-46.85a23.3,23.3,0,1,0,23.3,23.3A23.33,23.33,0,0,0,310.2,254.38Z" style="fill:#818CF8;opacity:0.19"></path><path d="M373.22,314.39h-139a.12.12,0,0,1-.12-.13v-3.87a.12.12,0,0,1,.12-.13h139a.12.12,0,0,1,.12.13v3.87A.12.12,0,0,1,373.22,314.39Zm-138.91-.25H373.09v-3.63H234.31Z" style="fill:#818CF8;opacity:0.19"></path><path d="M381,321.15H213.76a.12.12,0,0,1-.12-.13V246.5a.12.12,0,0,1,.12-.13H381a.12.12,0,0,1,.12.13V321A.12.12,0,0,1,381,321.15Zm-167.08-.25h167V246.62H213.89Z" style="fill:#818CF8;opacity:0.19"></path><path d="M378.77,230.46a1.51,1.51,0,1,0,1.51-1.5A1.5,1.5,0,0,0,378.77,230.46Z" style="fill:#fff"></path><circle cx="374.93" cy="230.46" r="1.51" style="fill:#fff"></circle><circle cx="369.58" cy="230.46" r="1.51" style="fill:#fff"></circle><rect x="208.23" y="233.92" width="178.27" height="0.38" style="fill:#818CF8"></rect><polygon points="233.93 216.6 210.4 348.23 233.69 348.23 257.22 216.6 233.93 216.6" style="fill:#fafafa;opacity:0.47000000000000003"></polygon><polygon points="262.9 216.6 239.38 348.23 251.02 348.23 274.55 216.6 262.9 216.6" style="fill:#fafafa;opacity:0.47000000000000003"></polygon><polygon points="393.06 216.6 369.53 348.23 375.36 348.23 398.88 216.6 393.06 216.6" style="fill:#fff;opacity:0.4"></polygon><polygon points="382.81 216.6 359.28 348.23 365.11 348.23 388.63 216.6 382.81 216.6" style="fill:#fff;opacity:0.4"></polygon><path d="M331.77,411.51H319.54a4.73,4.73,0,0,0-4.73,4.73h21.68A4.72,4.72,0,0,0,331.77,411.51Z" style="fill:#818CF8"></path><path d="M331.77,411.51H319.54a4.73,4.73,0,0,0-4.73,4.73h21.68A4.72,4.72,0,0,0,331.77,411.51Z" style="opacity:0.4"></path><path d="M298.45,360.23a4.9,4.9,0,1,1-4.9-4.9A4.9,4.9,0,0,1,298.45,360.23Z" style="fill:#818CF8"></path><path d="M298.45,360.23a4.9,4.9,0,1,1-4.9-4.9A4.9,4.9,0,0,1,298.45,360.23Z" style="opacity:0.5"></path></g><g id="freepik--plant-2--inject-45"><path d="M251.68,399.34c-.69-23.94-.63-169.93.76-181.92l1.89-2.61s-.87,2.32-1.08,43.35-.49,135.09-.26,141.18Z" style="fill:#818CF8"></path><path d="M262.91,310.55c8-13.32,16.76-22.79,23.1-28s-10.28,28.62-16.78,41.21-14.51,26.51-17.09,38.27C251.64,338.11,254.9,323.87,262.91,310.55Z" style="fill:#818CF8"></path><path d="M252.3,219.1c1.64-15.14-.58-29.13,7.66-46.86s14.51-31.65,22.46-38.12c1.91-1.56-4.62,29.26-12.21,46.62-5.35,12.25-7.07,21-12.75,29.26C256.13,211.92,252.3,219.1,252.3,219.1Z" style="fill:#818CF8"></path><path d="M252.26,299.88c1.66-18.69,3.16-36.69,13.89-63.28,2.61-6.48,26.8-51.76,33.11-56.66,3.09-2.41-7.72,27.68-18.28,53-7.91,19-11.19,24.44-20,46.48C257.53,288.15,252.26,299.88,252.26,299.88Z" style="fill:#818CF8"></path><path d="M238.18,207.65c-9-12.19-17.7-20.43-24.09-24.74s11,25.66,19.36,38.74,15.93,24.43,19.39,35.77C251.18,233.55,247.18,219.85,238.18,207.65Z" style="fill:#818CF8"></path><path d="M252.26,333c-1.7-13-5.2-28.27-10.2-39.59s-12.7-28.68-18.82-34.57c-1.47-1.42,6.4,32.35,11.46,41.33s8.76,17.45,11.94,22.54C247.7,324.36,252.26,333,252.26,333Z" style="fill:#818CF8"></path><path d="M251.68,399.34c-.69-23.94-.63-169.93.76-181.92l1.89-2.61s-.87,2.32-1.08,43.35-.49,135.09-.26,141.18Z" style="fill:#fff;opacity:0.5"></path><path d="M262.91,310.55c8-13.32,16.76-22.79,23.1-28s-10.28,28.62-16.78,41.21-14.51,26.51-17.09,38.27C251.64,338.11,254.9,323.87,262.91,310.55Z" style="fill:#fff;opacity:0.5"></path><path d="M252.3,219.1c1.64-15.14-.58-29.13,7.66-46.86s14.51-31.65,22.46-38.12c1.91-1.56-4.62,29.26-12.21,46.62-5.35,12.25-7.07,21-12.75,29.26C256.13,211.92,252.3,219.1,252.3,219.1Z" style="fill:#fff;opacity:0.5"></path><path d="M252.26,299.88c1.66-18.69,3.16-36.69,13.89-63.28,2.61-6.48,26.8-51.76,33.11-56.66,3.09-2.41-7.72,27.68-18.28,53-7.91,19-11.19,24.44-20,46.48C257.53,288.15,252.26,299.88,252.26,299.88Z" style="fill:#fff;opacity:0.5"></path><path d="M238.18,207.65c-9-12.19-17.7-20.43-24.09-24.74s11,25.66,19.36,38.74,15.93,24.43,19.39,35.77C251.18,233.55,247.18,219.85,238.18,207.65Z" style="fill:#fff;opacity:0.5"></path><path d="M252.26,333c-1.7-13-5.2-28.27-10.2-39.59s-12.7-28.68-18.82-34.57c-1.47-1.42,6.4,32.35,11.46,41.33s8.76,17.45,11.94,22.54C247.7,324.36,252.26,333,252.26,333Z" style="fill:#fff;opacity:0.5"></path><polygon points="271.3 416.24 233.4 416.24 230.54 394.46 274.16 394.46 271.3 416.24" style="fill:#263238"></polygon><polygon points="276.98 397 227.71 397 226.3 389.65 278.39 389.65 276.98 397" style="fill:#263238"></polygon></g><g id="freepik--Tablet--inject-45"><rect x="110.21" y="231.57" width="126.73" height="184.67" rx="6.99" style="fill:#818CF8"></rect><rect x="110.21" y="231.57" width="126.73" height="184.67" rx="6.99" style="opacity:0.6000000000000001"></rect><rect x="106.86" y="231.57" width="126.73" height="184.67" rx="6.99" style="fill:#818CF8"></rect><rect x="106.86" y="231.57" width="126.73" height="184.67" rx="6.99" style="opacity:0.30000000000000004"></rect><rect x="106.86" y="239.59" width="126.73" height="160.3" style="fill:#fafafa"></rect><rect x="106.86" y="239.59" width="126.73" height="160.3" style="fill:#818CF8;opacity:0.1"></rect><polygon points="151.79 239.99 122.79 400.29 144.94 400.29 173.94 239.99 151.79 239.99" style="fill:#fafafa;opacity:0.48"></polygon><polygon points="180.52 239.59 151.52 399.9 162.59 399.9 191.59 239.59 180.52 239.59" style="fill:#fafafa;opacity:0.48"></polygon><circle cx="170.22" cy="407.97" r="4.76" style="fill:#818CF8"></circle><circle cx="170.22" cy="407.97" r="4.76" style="opacity:0.5"></circle><path d="M171.32,235.26a1.1,1.1,0,1,1-1.1-1.1A1.1,1.1,0,0,1,171.32,235.26Z" style="fill:#818CF8"></path><path d="M171.32,235.26a1.1,1.1,0,1,1-1.1-1.1A1.1,1.1,0,0,1,171.32,235.26Z" style="opacity:0.5"></path></g><g id="freepik--Mobile--inject-45"><rect x="86.02" y="270.57" width="68.97" height="145.67" rx="6.99" style="fill:#818CF8"></rect><rect x="86.02" y="270.57" width="68.97" height="145.67" rx="6.99" style="opacity:0.6000000000000001"></rect><rect x="82.67" y="270.57" width="68.97" height="145.67" rx="6.99" style="fill:#818CF8"></rect><rect x="82.67" y="270.57" width="68.97" height="145.67" rx="6.99" style="opacity:0.30000000000000004"></rect><rect x="82.67" y="278.59" width="68.97" height="125.18" style="fill:#fafafa"></rect><rect x="82.71" y="278.33" width="68.97" height="125.18" style="fill:#818CF8;opacity:0.18"></rect><polygon points="107.7 278.6 85.33 403.78 107.48 403.78 129.86 278.6 107.7 278.6" style="fill:#fff;opacity:0.4"></polygon><polygon points="135.26 278.6 112.89 403.78 123.97 403.78 146.34 278.6 135.26 278.6" style="fill:#fff;opacity:0.4"></polygon><path d="M120.27,409.57a3.11,3.11,0,1,1-3.11-3.11A3.11,3.11,0,0,1,120.27,409.57Z" style="fill:#818CF8"></path><path d="M120.27,409.57a3.11,3.11,0,1,1-3.11-3.11A3.11,3.11,0,0,1,120.27,409.57Z" style="opacity:0.5"></path><circle cx="125.31" cy="274.26" r="1.1" style="fill:#818CF8"></circle><path d="M120.82,275.36H109a1.1,1.1,0,0,1-1.1-1.1h0a1.11,1.11,0,0,1,1.1-1.1h11.81a1.11,1.11,0,0,1,1.1,1.1h0A1.1,1.1,0,0,1,120.82,275.36Z" style="fill:#818CF8"></path><circle cx="125.31" cy="274.26" r="1.1" style="opacity:0.5"></circle><path d="M120.82,275.36H109a1.1,1.1,0,0,1-1.1-1.1h0a1.11,1.11,0,0,1,1.1-1.1h11.81a1.11,1.11,0,0,1,1.1,1.1h0A1.1,1.1,0,0,1,120.82,275.36Z" style="opacity:0.5"></path></g></svg>