<svg xmlns="http://www.w3.org/2000/svg" viewBox="0 0 500 500"><g id="freepik--background-simple--inject-26"><path d="M418.25,140.62,416,137c-18.62-30.68-52.28-49.18-87.78-46.93a93,93,0,0,0-13.58,1.86c-32.27,6.91-60.35,31.32-72,62.57-6.85,18.38-8.76,39.54-21.75,54.13-16.91,19-45.61,19.59-70.84,18.8s-54-.11-70.78,19c-10.54,11.94-13.89,28.92-13,44.91,2.25,42.33,31.75,80.18,69.26,99s81.68,20.5,122.74,12.22c57.51-11.59,112.2-43.43,145.08-92.61S444.56,193.7,418.25,140.62Z" style="fill:#f5f5f5"></path></g><g id="freepik--device-2--inject-26"><path d="M194.32,352.51H130.71a36.09,36.09,0,0,1-36.06-36.06V245.5h1v70.95a35.1,35.1,0,0,0,35.06,35.06h62.61V148.42a22.34,22.34,0,0,1,44.68,0v19.16h-1V148.42a21.34,21.34,0,0,0-42.68,0Z" style="fill:#455a64"></path><rect x="84.6" y="185.2" width="20.51" height="4.82" style="fill:#e0e0e0"></rect><path d="M105.11,190s0-.49-.07-1.32-.05-2.06-.08-3.5l.15.15c-4.55.06-12,.11-20.51.11h0l.26-.26h0v2.43c0,.81,0,1.6,0,2.38l-.25-.26c5.79,0,10.87.06,14.55.11l4.34.08,1.19,0a1.47,1.47,0,0,1,.43,0,13.89,13.89,0,0,1-1.5.06l-4.28.08c-3.66.05-8.83.1-14.73.11h-.26v-5.06h0l.26-.26h0c8.46,0,16,0,20.51.1h.16v.15c0,1.48-.06,2.69-.08,3.59A9.92,9.92,0,0,1,105.11,190Z" style="fill:#263238"></path><rect x="36.77" y="39.61" width="116.83" height="145.58" rx="15.08" style="fill:#ebebeb"></rect><path d="M36.77,139.47H153.6a0,0,0,0,1,0,0v32.3a13.43,13.43,0,0,1-13.43,13.43h-90a13.43,13.43,0,0,1-13.43-13.43v-32.3a0,0,0,0,1,0,0Z" style="fill:#455a64"></path><path d="M139,185.2l1.29-.1c.42,0,.94-.14,1.57-.23A14.91,14.91,0,0,0,149.1,181a14.58,14.58,0,0,0,4-7.19,20.28,20.28,0,0,0,.37-5c0-1.76,0-3.6,0-5.52q0-5.78,0-12.53c0-9,0-19.22,0-30.52s0-23.7,0-37q0-10,0-20.61V57.35a28.19,28.19,0,0,0-.26-5.37,14.84,14.84,0,0,0-10.52-11.54,17.94,17.94,0,0,0-5.59-.58H101.43l-50.36.05A14.77,14.77,0,0,0,37.48,51.15,24.4,24.4,0,0,0,37,57.38V82.2c0,16.28,0,32,0,46.93s0,29.17,0,42.47a13,13,0,0,0,3.09,8.91,12.65,12.65,0,0,0,8,4.35,38.36,38.36,0,0,0,4.55.14H65.77l53.58.08,14.56,0,3.79,0,1.29,0-1.29,0-3.79,0-14.56.05-53.58.08H52.6a37.48,37.48,0,0,1-4.6-.13,13.06,13.06,0,0,1-8.24-4.48,13.46,13.46,0,0,1-3.21-9.18c0-13.3,0-27.51,0-42.47s0-30.65,0-46.93q0-12.21,0-24.82A25.22,25.22,0,0,1,37,51a15.45,15.45,0,0,1,2.81-5.79A15.27,15.27,0,0,1,51,39.4c17.28-.09,34.11,0,50.39,0H137a18.4,18.4,0,0,1,5.72.6,15.34,15.34,0,0,1,10.85,11.92,28.71,28.71,0,0,1,.26,5.46V62.7q0,10.62,0,20.61c0,13.3,0,25.69,0,37s0,21.54,0,30.52q0,6.75,0,12.53c0,1.92,0,3.76,0,5.52a20.83,20.83,0,0,1-.4,5A14.64,14.64,0,0,1,144,184.36a15.84,15.84,0,0,1-2.12.59c-.63.08-1.15.19-1.58.21Z" style="fill:#263238"></path><path d="M143,150.13a3.44,3.44,0,1,1-3.44-3.44A3.44,3.44,0,0,1,143,150.13Z" style="fill:#818CF8"></path><path d="M139.55,153.59a3.47,3.47,0,1,1,3.46-3.46A3.46,3.46,0,0,1,139.55,153.59Zm0-6.88a3.42,3.42,0,1,0,3.41,3.42A3.42,3.42,0,0,0,139.55,146.71Z" style="fill:#263238"></path><path d="M131.36,150.13a3.44,3.44,0,1,1-3.44-3.44A3.44,3.44,0,0,1,131.36,150.13Z" style="fill:#fafafa"></path><path d="M127.92,153.59a3.47,3.47,0,1,1,3.47-3.46A3.46,3.46,0,0,1,127.92,153.59Zm0-6.88a3.42,3.42,0,1,0,3.42,3.42A3.42,3.42,0,0,0,127.92,146.71Z" style="fill:#263238"></path><path d="M113.12,108.39H84.56A15.63,15.63,0,0,1,69,92.77a15.19,15.19,0,0,1,7-12.53,11.29,11.29,0,0,1,9.25-1.36A16.27,16.27,0,0,1,98.4,71.33a18.29,18.29,0,0,1,17.19,12.06,12.62,12.62,0,0,1-2.47,25Zm-31-25a6.8,6.8,0,0,0-3.54,1.06A10.18,10.18,0,0,0,74,92.77a10.62,10.62,0,0,0,10.61,10.62h28.56a7.62,7.62,0,0,0,.42-15.23,2.48,2.48,0,0,1-2.29-1.87,13.28,13.28,0,0,0-12.85-10c-3.86,0-7.83,2.72-9.88,6.77a2.5,2.5,0,0,1-3.36,1.11A6.61,6.61,0,0,0,82.11,83.44Z" style="fill:#818CF8"></path><path d="M243.48,167.58H231.53v-3.23a6,6,0,0,1,6-6h0a6,6,0,0,1,6,6Z" style="fill:#455a64"></path><path d="M94.28,237.53h0a14.7,14.7,0,0,1-14.7-14.7V190H109v32.81A14.7,14.7,0,0,1,94.28,237.53Z" style="fill:#455a64"></path><rect x="92.37" y="232.04" width="5.89" height="15.26" style="fill:#455a64"></rect><path d="M93.93,217a6.94,6.94,0,0,1,.77-1.54c.53-.94,1.3-2.24,2.2-3.72l.22.38H92.05l.23-.37A37.73,37.73,0,0,1,95.35,207,37.08,37.08,0,0,1,92.7,212l-.21-.38h5.08l-.24.38c-.93,1.47-1.76,2.74-2.36,3.63A6.58,6.58,0,0,1,93.93,217Z" style="fill:#fff"></path><path d="M102,212c-.06,0,0-.64-.32-1.72A7.11,7.11,0,0,0,99,206.46a6.92,6.92,0,1,0,0,11.09,7.14,7.14,0,0,0,2.62-3.82c.29-1.09.26-1.73.32-1.73a1.38,1.38,0,0,1,0,.46,5.83,5.83,0,0,1-.15,1.32,7.25,7.25,0,0,1-5.68,5.47A7.39,7.39,0,0,1,87.38,212a7.42,7.42,0,0,1,1.45-4.38,7.35,7.35,0,0,1,10.42-1.46,7.18,7.18,0,0,1,2.59,4.07,5.7,5.7,0,0,1,.15,1.31A1.33,1.33,0,0,1,102,212Z" style="fill:#fff"></path></g><g id="freepik--device-1--inject-26"><polygon points="297.24 252.12 294.5 248.47 279.43 248.48 279.41 222.17 319.3 222.13 319.32 251.84 306.38 251.85 306.38 248.46 300.69 248.46 300.69 252.12 297.24 252.12" style="fill:#818CF8"></polygon><path d="M313.11,225.43c.07,0,.13,4.85.13,10.83s-.05,10.83-.12,10.83-.12-4.85-.13-10.83S313,225.43,313.11,225.43Z" style="fill:#e0e0e0"></path><g style="opacity:0.4"><rect x="285.71" y="241.22" width="1.31" height="8.55" transform="translate(41.11 532.07) rotate(-90.05)" style="fill:#fff"></rect></g><g style="opacity:0.4"><rect x="285.71" y="238.92" width="1.31" height="8.55" transform="translate(43.41 529.76) rotate(-90.05)" style="fill:#fff"></rect></g><g style="opacity:0.4"><rect x="285.7" y="236.62" width="1.31" height="8.55" transform="translate(45.71 527.46) rotate(-90.05)" style="fill:#fff"></rect></g><g style="opacity:0.4"><rect x="285.7" y="234.32" width="1.31" height="8.55" transform="translate(48 525.15) rotate(-90.05)" style="fill:#fff"></rect></g><g style="opacity:0.4"><rect x="285.7" y="232.02" width="1.31" height="8.55" transform="translate(50.3 522.85) rotate(-90.05)" style="fill:#fff"></rect></g><g style="opacity:0.4"><rect x="285.7" y="229.72" width="1.31" height="8.55" transform="translate(52.6 520.54) rotate(-90.05)" style="fill:#fff"></rect></g><g style="opacity:0.4"><rect x="285.7" y="227.42" width="1.31" height="8.55" transform="translate(54.9 518.24) rotate(-90.05)" style="fill:#fff"></rect></g><g style="opacity:0.4"><rect x="285.69" y="225.12" width="1.31" height="8.55" transform="translate(57.2 515.94) rotate(-90.05)" style="fill:#fff"></rect></g><g style="opacity:0.4"><rect x="285.69" y="222.82" width="1.31" height="8.55" transform="translate(59.52 513.65) rotate(-90.05)" style="fill:#fff"></rect></g><g style="opacity:0.4"><rect x="285.69" y="220.52" width="1.31" height="8.55" transform="translate(61.8 511.33) rotate(-90.05)" style="fill:#fff"></rect></g><path d="M308.58,240a4.67,4.67,0,0,1-.05-.84c0-.59,0-1.34-.06-2.26,0-1.94-.09-4.67-.11-7.95l.22.22-12.49,0,.26-.26h0v3c0,1,0,1.92,0,2.84,0,1.85,0,3.61,0,5.24l-.23-.23c3.68,0,6.77.07,9,.12l2.57.06a7.84,7.84,0,0,1,.95.05,5.33,5.33,0,0,1-.86,0l-2.52.06c-2.18.05-5.33.1-9.11.12h-.23V240c0-1.63,0-3.39,0-5.24,0-.92,0-1.87,0-2.84v-3h0c-.23.24.32-.31.26-.26l12.49,0h.22V229c0,3.38-.08,6.17-.12,8.09,0,.9,0,1.63-.05,2.21A5.38,5.38,0,0,1,308.58,240Z" style="fill:#263238"></path><path d="M297.09,229.06c-.14,0-.26-.46-.26-1s.12-1,.26-1,.26.45.26,1S297.24,229.06,297.09,229.06Z" style="fill:#263238"></path><path d="M298.78,229.06c-.15,0-.26-.46-.26-1s.11-1,.26-1,.26.45.26,1S298.92,229.06,298.78,229.06Z" style="fill:#263238"></path><path d="M300.46,229.06c-.14,0-.26-.46-.26-1s.12-1,.26-1,.26.45.26,1S300.61,229.06,300.46,229.06Z" style="fill:#263238"></path><path d="M302.15,229.06c-.14,0-.26-.46-.26-1s.12-1,.26-1,.26.45.26,1S302.29,229.06,302.15,229.06Z" style="fill:#263238"></path><path d="M303.83,229.06c-.14,0-.26-.46-.26-1s.12-1,.26-1,.27.45.27,1S304,229.06,303.83,229.06Z" style="fill:#263238"></path><path d="M305.52,229.06c-.14,0-.26-.46-.26-1s.12-1,.26-1,.26.45.26,1S305.66,229.06,305.52,229.06Z" style="fill:#263238"></path><path d="M307.21,229.06c-.15,0-.26-.46-.26-1s.11-1,.26-1,.26.45.26,1S307.35,229.06,307.21,229.06Z" style="fill:#263238"></path><path d="M297.09,242.12c-.14,0-.26-.46-.26-1s.12-1,.26-1,.26.46.26,1S297.24,242.12,297.09,242.12Z" style="fill:#263238"></path><path d="M298.78,242.12c-.15,0-.26-.46-.26-1s.11-1,.26-1,.26.46.26,1S298.92,242.12,298.78,242.12Z" style="fill:#263238"></path><path d="M300.46,242.12c-.14,0-.26-.46-.26-1s.12-1,.26-1,.26.46.26,1S300.61,242.12,300.46,242.12Z" style="fill:#263238"></path><path d="M302.15,242.12c-.14,0-.26-.46-.26-1s.12-1,.26-1,.26.46.26,1S302.29,242.12,302.15,242.12Z" style="fill:#263238"></path><path d="M303.83,242.12c-.14,0-.26-.46-.26-1s.12-1,.26-1,.27.46.27,1S304,242.12,303.83,242.12Z" style="fill:#263238"></path><path d="M305.52,242.12c-.14,0-.26-.46-.26-1s.12-1,.26-1,.26.46.26,1S305.66,242.12,305.52,242.12Z" style="fill:#263238"></path><path d="M307.21,242.12c-.15,0-.26-.46-.26-1s.11-1,.26-1,.26.46.26,1S307.35,242.12,307.21,242.12Z" style="fill:#263238"></path><path d="M294.05,229.44c0-.14.46-.26,1-.26s1,.12,1,.26-.46.26-1,.26S294.05,229.58,294.05,229.44Z" style="fill:#263238"></path><path d="M294.05,231.12c0-.14.46-.26,1-.26s1,.12,1,.26-.46.27-1,.27S294.05,231.27,294.05,231.12Z" style="fill:#263238"></path><path d="M294.05,232.81c0-.14.46-.26,1-.26s1,.12,1,.26-.46.26-1,.26S294.05,233,294.05,232.81Z" style="fill:#263238"></path><path d="M294.05,234.5c0-.15.46-.26,1-.26s1,.11,1,.26-.46.26-1,.26S294.05,234.64,294.05,234.5Z" style="fill:#263238"></path><path d="M294.05,236.18c0-.14.46-.26,1-.26s1,.12,1,.26-.46.26-1,.26S294.05,236.33,294.05,236.18Z" style="fill:#263238"></path><path d="M294.05,237.87c0-.15.46-.26,1-.26s1,.11,1,.26-.46.26-1,.26S294.05,238,294.05,237.87Z" style="fill:#263238"></path><path d="M294.05,239.55c0-.14.46-.26,1-.26s1,.12,1,.26-.46.26-1,.26S294.05,239.7,294.05,239.55Z" style="fill:#263238"></path><path d="M308.71,229.44c0-.14.45-.26,1-.26s1,.12,1,.26-.46.26-1,.26S308.71,229.58,308.71,229.44Z" style="fill:#263238"></path><ellipse cx="309.73" cy="231.12" rx="1.02" ry="0.26" style="fill:#263238"></ellipse><ellipse cx="309.73" cy="232.81" rx="1.02" ry="0.26" style="fill:#263238"></ellipse><ellipse cx="309.73" cy="234.5" rx="1.02" ry="0.26" style="fill:#263238"></ellipse><ellipse cx="309.73" cy="236.18" rx="1.02" ry="0.26" style="fill:#263238"></ellipse><path d="M308.71,237.87c0-.15.45-.26,1-.26s1,.11,1,.26-.46.26-1,.26S308.71,238,308.71,237.87Z" style="fill:#263238"></path><path d="M308.71,239.55c0-.14.45-.26,1-.26s1,.12,1,.26-.46.26-1,.26S308.71,239.7,308.71,239.55Z" style="fill:#263238"></path><rect x="318.56" y="216.38" width="5.34" height="41.49" style="fill:#f5f5f5"></rect><path d="M323.91,257.87a1.17,1.17,0,0,1,0-.23l0-.63q0-.88,0-2.4c0-2.11,0-5.11-.08-8.81,0-7.46-.07-17.79-.11-29.42l.26.26h-5.34c.51-.52.14-.13.25-.24h0v6.66q0,3.27,0,6.39c0,4.14,0,8,0,11.63,0,7.11-.07,12.92-.1,16.78l-.12-.12,3.95.07,1,0,.37,0a1.12,1.12,0,0,1-.33,0l-1,0-4,.07h-.12v-.12c0-3.86-.05-9.67-.1-16.78,0-3.58,0-7.49,0-11.63v-6.39c0-1.1,0-2.2,0-3.31v-3.35h0c.12-.12-.26.24.27-.28h5.6v.25c-.05,11.71-.09,22.09-.12,29.61,0,3.68-.05,6.65-.07,8.75,0,1,0,1.77,0,2.34A7.51,7.51,0,0,1,323.91,257.87Z" style="fill:#263238"></path><rect x="131.89" y="427.58" width="131.84" height="43.05" rx="3.51" style="fill:#e0e0e0"></rect><path d="M260.22,470.63a5,5,0,0,0,.87-.14,3.47,3.47,0,0,0,2-1.49,3.4,3.4,0,0,0,.54-1.78c0-.71,0-1.48,0-2.31,0-1.68,0-3.61,0-5.78,0-4.36,0-9.68-.05-15.85q0-4.63,0-9.89c0-.87,0-1.79,0-2.65a3.37,3.37,0,0,0-1.21-2.23,3.54,3.54,0,0,0-2.52-.75h-2.88l-121.52.08a3.27,3.27,0,0,0-3.11,2.26,3.8,3.8,0,0,0-.15,1v29.1c0,1.4,0,2.79,0,4.18v2.07a4.53,4.53,0,0,0,.26,1.93,3.26,3.26,0,0,0,3,2h19.85l54.63.06,36.83.08,10,.05,2.6,0,.89,0-.89,0-2.6,0-10,.05-36.83.08-54.63.05H135.4a3.76,3.76,0,0,1-3.46-2.28,3.93,3.93,0,0,1-.28-1.07c0-.38,0-.71,0-1.06v-6.25q0-8.4,0-17.07v-12a3.91,3.91,0,0,1,.18-1.17,3.79,3.79,0,0,1,3.6-2.63l121.52.08h2.88a3.88,3.88,0,0,1,2.74.83,3.71,3.71,0,0,1,1.33,2.46c0,.94,0,1.8,0,2.69q0,5.25,0,9.89c0,6.17,0,11.49,0,15.85,0,2.17,0,4.1,0,5.78,0,.83,0,1.61,0,2.31a3.58,3.58,0,0,1-.58,1.84,3.43,3.43,0,0,1-2.11,1.48A2.45,2.45,0,0,1,260.22,470.63Z" style="fill:#263238"></path><rect x="176.09" y="427.58" width="131.84" height="43.05" rx="3.51" style="fill:#f5f5f5"></rect><path d="M304.42,470.63a5.34,5.34,0,0,0,.87-.14,3.43,3.43,0,0,0,2-1.49,3.32,3.32,0,0,0,.54-1.78v-2.31c0-1.68,0-3.61,0-5.78,0-4.36,0-9.68,0-15.85,0-3.09,0-6.39,0-9.89,0-.87,0-1.79,0-2.65a3.29,3.29,0,0,0-1.21-2.23,3.51,3.51,0,0,0-2.51-.75h-2.88l-121.53.08a3.24,3.24,0,0,0-3.1,2.26,3.43,3.43,0,0,0-.15,1v12q0,8.67,0,17.07v6.25a4.38,4.38,0,0,0,.26,1.93,3.25,3.25,0,0,0,3,2h19.85l54.63.06,36.83.08,10,.05,2.61,0,.89,0-.89,0-2.61,0-10,.05-36.83.08-54.63.05H179.6a3.78,3.78,0,0,1-3.47-2.28,4.31,4.31,0,0,1-.27-1.07c0-.38,0-.71,0-1.06V431.12A4.25,4.25,0,0,1,176,430a3.8,3.8,0,0,1,3.6-2.63l121.53.08H304a3.85,3.85,0,0,1,2.73.83,3.63,3.63,0,0,1,1.33,2.46c0,.94,0,1.8,0,2.69,0,3.5,0,6.8,0,9.89,0,6.17,0,11.49,0,15.85,0,2.17,0,4.1,0,5.78,0,.83,0,1.61,0,2.31a3.49,3.49,0,0,1-.58,1.84,3.44,3.44,0,0,1-2.1,1.48A2.46,2.46,0,0,1,304.42,470.63Z" style="fill:#263238"></path><path d="M254.9,453.84H193.82a3.66,3.66,0,0,1-3.66-3.66h0a3.65,3.65,0,0,1,3.66-3.65H254.9a3.65,3.65,0,0,1,3.66,3.65h0A3.66,3.66,0,0,1,254.9,453.84Z" style="fill:#e0e0e0"></path><path d="M277,449.6a3.08,3.08,0,1,1-3.08-3.07A3.07,3.07,0,0,1,277,449.6Z" style="fill:#818CF8"></path><path d="M287.46,449.6a3.08,3.08,0,1,1-3.08-3.07A3.07,3.07,0,0,1,287.46,449.6Z" style="fill:#e0e0e0"></path><path d="M298,449.6a3.07,3.07,0,1,1-3.07-3.07A3.06,3.06,0,0,1,298,449.6Z" style="fill:#e0e0e0"></path><path d="M220.7,453.84H193.82a3.66,3.66,0,0,1-3.66-3.66h0a3.65,3.65,0,0,1,3.66-3.65H220.7a3.65,3.65,0,0,1,3.66,3.65h0A3.66,3.66,0,0,1,220.7,453.84Z" style="fill:#455a64"></path><rect x="131.89" y="384.32" width="131.84" height="43.05" rx="3.51" style="fill:#e0e0e0"></rect><path d="M260.22,427.37a6.7,6.7,0,0,0,.87-.14,3.56,3.56,0,0,0,2-1.49,3.47,3.47,0,0,0,.54-1.79c0-.7,0-1.47,0-2.31,0-1.68,0-3.61,0-5.78,0-4.35,0-9.67-.05-15.85q0-4.63,0-9.89c0-.87,0-1.78,0-2.65a3.39,3.39,0,0,0-1.21-2.23,3.53,3.53,0,0,0-2.52-.74h-2.88l-121.52.08a3.28,3.28,0,0,0-3.11,2.26,3.86,3.86,0,0,0-.15,1V417c0,1.4,0,2.79,0,4.18v2.07a4.51,4.51,0,0,0,.26,1.93,3.29,3.29,0,0,0,3,2h19.85l54.63.05,36.83.08,10,.05,2.6,0,.89,0-.89,0-2.6,0-10,.05-36.83.08-54.63.06H135.4a3.77,3.77,0,0,1-3.46-2.29,3.93,3.93,0,0,1-.28-1.07c0-.37,0-.71,0-1.06V417c0-5.59,0-11.29,0-17.07v-12a3.91,3.91,0,0,1,.18-1.17,3.79,3.79,0,0,1,3.6-2.62l121.52.07h2.88a3.88,3.88,0,0,1,2.74.83,3.74,3.74,0,0,1,1.33,2.47c0,.93,0,1.8,0,2.68q0,5.25,0,9.89c0,6.18,0,11.5,0,15.85,0,2.17,0,4.1,0,5.78,0,.84,0,1.61,0,2.32a3.58,3.58,0,0,1-.58,1.83,3.5,3.5,0,0,1-2.11,1.49A2.79,2.79,0,0,1,260.22,427.37Z" style="fill:#263238"></path><rect x="176.09" y="384.32" width="131.84" height="43.05" rx="3.51" style="fill:#f5f5f5"></rect><path d="M304.42,427.37a7.35,7.35,0,0,0,.87-.14,3.52,3.52,0,0,0,2-1.49,3.38,3.38,0,0,0,.54-1.79v-2.31c0-1.68,0-3.61,0-5.78,0-4.35,0-9.67,0-15.85,0-3.09,0-6.39,0-9.89,0-.87,0-1.78,0-2.65a3.31,3.31,0,0,0-1.21-2.23,3.51,3.51,0,0,0-2.51-.74h-2.88l-121.53.08a3.26,3.26,0,0,0-3.1,2.26,3.48,3.48,0,0,0-.15,1v12c0,5.78,0,11.48,0,17.07v6.25a4.36,4.36,0,0,0,.26,1.93,3.28,3.28,0,0,0,3,2h19.85l54.63.05,36.83.08,10,.05,2.61,0,.89,0-.89,0-2.61,0-10,.05-36.83.08-54.63.06H179.6a3.79,3.79,0,0,1-3.47-2.29,4.31,4.31,0,0,1-.27-1.07c0-.37,0-.71,0-1.06V387.85a4.25,4.25,0,0,1,.17-1.17,3.8,3.8,0,0,1,3.6-2.62l121.53.07H304a3.85,3.85,0,0,1,2.73.83,3.65,3.65,0,0,1,1.33,2.47c0,.93,0,1.8,0,2.68,0,3.5,0,6.8,0,9.89,0,6.18,0,11.5,0,15.85,0,2.17,0,4.1,0,5.78,0,.84,0,1.61,0,2.32a3.54,3.54,0,0,1-2.68,3.32A2.8,2.8,0,0,1,304.42,427.37Z" style="fill:#263238"></path><path d="M254.9,410.57H193.82a3.66,3.66,0,0,1-3.66-3.65h0a3.66,3.66,0,0,1,3.66-3.66H254.9a3.66,3.66,0,0,1,3.66,3.66h0A3.66,3.66,0,0,1,254.9,410.57Z" style="fill:#e0e0e0"></path><path d="M277,406.33a3.08,3.08,0,1,1-3.08-3.07A3.08,3.08,0,0,1,277,406.33Z" style="fill:#818CF8"></path><path d="M287.46,406.33a3.08,3.08,0,1,1-3.08-3.07A3.08,3.08,0,0,1,287.46,406.33Z" style="fill:#e0e0e0"></path><path d="M298,406.33a3.07,3.07,0,1,1-3.07-3.07A3.07,3.07,0,0,1,298,406.33Z" style="fill:#e0e0e0"></path><path d="M220.7,410.57H193.82a3.66,3.66,0,0,1-3.66-3.65h0a3.66,3.66,0,0,1,3.66-3.66H220.7a3.66,3.66,0,0,1,3.66,3.66h0A3.66,3.66,0,0,1,220.7,410.57Z" style="fill:#455a64"></path><rect x="131.89" y="341.05" width="131.84" height="43.05" rx="3.51" style="fill:#e0e0e0"></rect><path d="M260.22,384.1a6.7,6.7,0,0,0,.87-.14,3.47,3.47,0,0,0,2.57-3.27c0-.71,0-1.48,0-2.32,0-1.67,0-3.6,0-5.78,0-4.35,0-9.67-.05-15.84,0-3.09,0-6.4,0-9.9,0-.87,0-1.78,0-2.64a3.34,3.34,0,0,0-1.21-2.23,3.54,3.54,0,0,0-2.52-.75h-2.88l-121.52.08a3.29,3.29,0,0,0-3.11,2.26,3.86,3.86,0,0,0-.15,1v29.1c0,1.4,0,2.8,0,4.18v2.08a4.53,4.53,0,0,0,.26,1.93,3.29,3.29,0,0,0,3,2h19.85l54.63.05,36.83.09,10,.05,2.6,0,.89,0-.89,0-2.6,0-10,.05-36.83.08-54.63.06H135.4a3.77,3.77,0,0,1-3.46-2.29,4,4,0,0,1-.28-1.06c0-.38,0-.72,0-1.06v-6.26q0-8.39,0-17.06v-12a3.78,3.78,0,0,1,3.78-3.79l121.52.08h2.88a3.88,3.88,0,0,1,2.74.84,3.71,3.71,0,0,1,1.33,2.46c0,.93,0,1.8,0,2.68,0,3.5,0,6.81,0,9.9,0,6.17,0,11.49,0,15.84,0,2.18,0,4.11,0,5.78,0,.84,0,1.61,0,2.32a3.64,3.64,0,0,1-.58,1.84A3.52,3.52,0,0,1,261.1,384,2.79,2.79,0,0,1,260.22,384.1Z" style="fill:#263238"></path><rect x="176.09" y="341.05" width="131.84" height="43.05" rx="3.51" style="fill:#f5f5f5"></rect><path d="M304.42,384.1a7.35,7.35,0,0,0,.87-.14,3.43,3.43,0,0,0,2-1.49,3.37,3.37,0,0,0,.54-1.78v-2.32c0-1.67,0-3.6,0-5.78,0-4.35,0-9.67,0-15.84,0-3.09,0-6.4,0-9.9,0-.87,0-1.78,0-2.64a3.27,3.27,0,0,0-1.21-2.23,3.51,3.51,0,0,0-2.51-.75h-2.88l-121.53.08a3.27,3.27,0,0,0-3.1,2.26,3.48,3.48,0,0,0-.15,1v12q0,8.67,0,17.06v6.26a4.38,4.38,0,0,0,.26,1.93,3.28,3.28,0,0,0,3,2h19.85l54.63.05,36.83.09,10,.05,2.61,0,.89,0-.89,0-2.61,0-10,.05-36.83.08-54.63.06H179.6a3.79,3.79,0,0,1-3.47-2.29,4.35,4.35,0,0,1-.27-1.06c0-.38,0-.72,0-1.06V344.58a4.12,4.12,0,0,1,.17-1.16,3.79,3.79,0,0,1,3.6-2.63l121.53.08H304a3.86,3.86,0,0,1,2.73.84,3.63,3.63,0,0,1,1.33,2.46c0,.93,0,1.8,0,2.68,0,3.5,0,6.81,0,9.9,0,6.17,0,11.49,0,15.84,0,2.18,0,4.11,0,5.78,0,.84,0,1.61,0,2.32A3.52,3.52,0,0,1,305.3,384,2.8,2.8,0,0,1,304.42,384.1Z" style="fill:#263238"></path><path d="M254.9,367.3H193.82a3.65,3.65,0,0,1-3.66-3.65h0a3.66,3.66,0,0,1,3.66-3.66H254.9a3.66,3.66,0,0,1,3.66,3.66h0A3.65,3.65,0,0,1,254.9,367.3Z" style="fill:#e0e0e0"></path><path d="M277,363.07a3.08,3.08,0,1,1-3.08-3.08A3.08,3.08,0,0,1,277,363.07Z" style="fill:#818CF8"></path><path d="M287.46,363.07a3.08,3.08,0,1,1-3.08-3.08A3.08,3.08,0,0,1,287.46,363.07Z" style="fill:#e0e0e0"></path><path d="M298,363.07a3.07,3.07,0,1,1-3.07-3.08A3.07,3.07,0,0,1,298,363.07Z" style="fill:#e0e0e0"></path><path d="M220.7,367.3H193.82a3.65,3.65,0,0,1-3.66-3.65h0a3.66,3.66,0,0,1,3.66-3.66H220.7a3.66,3.66,0,0,1,3.66,3.66h0A3.65,3.65,0,0,1,220.7,367.3Z" style="fill:#455a64"></path><rect x="131.89" y="297.78" width="131.84" height="43.05" rx="3.51" style="fill:#e0e0e0"></rect><path d="M260.22,340.83a5,5,0,0,0,.87-.14,3.47,3.47,0,0,0,2-1.49,3.4,3.4,0,0,0,.54-1.78c0-.71,0-1.48,0-2.31,0-1.68,0-3.61,0-5.78,0-4.36,0-9.68-.05-15.85q0-4.64,0-9.9c0-.86,0-1.78,0-2.64a3.37,3.37,0,0,0-1.21-2.23,3.54,3.54,0,0,0-2.52-.75h-2.88L135.41,298a3.29,3.29,0,0,0-3.11,2.27,3.74,3.74,0,0,0-.15,1v29.1c0,1.4,0,2.79,0,4.18v2.07a4.53,4.53,0,0,0,.26,1.93,3.28,3.28,0,0,0,3,2h19.85l54.63.06,36.83.08,10,0,2.6,0c.59,0,.89,0,.89,0l-.89,0-2.6,0-10,.05-36.83.09-54.63.05H135.4a3.76,3.76,0,0,1-3.46-2.28,4,4,0,0,1-.28-1.07c0-.38,0-.72,0-1.06v-6.25q0-8.4,0-17.07v-12a3.86,3.86,0,0,1,.18-1.17,3.79,3.79,0,0,1,3.6-2.63l121.52.08h2.88a3.93,3.93,0,0,1,2.74.84,3.71,3.71,0,0,1,1.33,2.46c0,.94,0,1.8,0,2.68q0,5.26,0,9.9c0,6.17,0,11.49,0,15.85,0,2.17,0,4.1,0,5.78,0,.83,0,1.61,0,2.31a3.58,3.58,0,0,1-.58,1.84,3.52,3.52,0,0,1-2.11,1.48A2.79,2.79,0,0,1,260.22,340.83Z" style="fill:#263238"></path><rect x="176.09" y="297.78" width="131.84" height="43.05" rx="3.51" style="fill:#f5f5f5"></rect><path d="M304.42,340.83a5.34,5.34,0,0,0,.87-.14,3.43,3.43,0,0,0,2-1.49,3.32,3.32,0,0,0,.54-1.78v-2.31c0-1.68,0-3.61,0-5.78,0-4.36,0-9.68,0-15.85,0-3.09,0-6.39,0-9.9,0-.86,0-1.78,0-2.64a3.29,3.29,0,0,0-1.21-2.23A3.51,3.51,0,0,0,304,298h-2.88L179.6,298a3.27,3.27,0,0,0-3.1,2.27,3.38,3.38,0,0,0-.15,1v12q0,8.67,0,17.07v6.25a4.38,4.38,0,0,0,.26,1.93,3.27,3.27,0,0,0,3,2h19.85l54.63.06,36.83.08,10,0,2.61,0c.59,0,.89,0,.89,0l-.89,0-2.61,0-10,.05-36.83.09-54.63.05H179.6a3.78,3.78,0,0,1-3.47-2.28,4.42,4.42,0,0,1-.27-1.07c0-.38,0-.72,0-1.06V301.32a4.19,4.19,0,0,1,.17-1.17,3.8,3.8,0,0,1,3.6-2.63l121.53.08H304a3.91,3.91,0,0,1,2.73.84,3.63,3.63,0,0,1,1.33,2.46c0,.94,0,1.8,0,2.68,0,3.51,0,6.81,0,9.9,0,6.17,0,11.49,0,15.85,0,2.17,0,4.1,0,5.78,0,.83,0,1.61,0,2.31a3.49,3.49,0,0,1-.58,1.84,3.53,3.53,0,0,1-2.1,1.48A2.8,2.8,0,0,1,304.42,340.83Z" style="fill:#263238"></path><path d="M254.9,324H193.82a3.66,3.66,0,0,1-3.66-3.66h0a3.66,3.66,0,0,1,3.66-3.66H254.9a3.66,3.66,0,0,1,3.66,3.66h0A3.66,3.66,0,0,1,254.9,324Z" style="fill:#e0e0e0"></path><path d="M277,319.8a3.08,3.08,0,1,1-3.08-3.08A3.07,3.07,0,0,1,277,319.8Z" style="fill:#818CF8"></path><path d="M287.46,319.8a3.08,3.08,0,1,1-3.08-3.08A3.07,3.07,0,0,1,287.46,319.8Z" style="fill:#e0e0e0"></path><path d="M298,319.8a3.07,3.07,0,1,1-3.07-3.08A3.06,3.06,0,0,1,298,319.8Z" style="fill:#e0e0e0"></path><rect x="190.16" y="316.72" width="34.2" height="7.31" rx="3.66" style="fill:#455a64"></rect><rect x="131.89" y="254.52" width="131.84" height="43.05" rx="3.51" style="fill:#e0e0e0"></rect><path d="M260.22,297.56a5,5,0,0,0,.87-.14,3.47,3.47,0,0,0,2-1.49,3.4,3.4,0,0,0,.54-1.78c0-.7,0-1.48,0-2.31,0-1.68,0-3.61,0-5.78,0-4.36,0-9.67-.05-15.85q0-4.63,0-9.89c0-.87,0-1.79,0-2.65a3.37,3.37,0,0,0-1.21-2.23,3.53,3.53,0,0,0-2.52-.74h-2.88l-121.52.08A3.28,3.28,0,0,0,132.3,257a3.8,3.8,0,0,0-.15,1v29.1c0,1.4,0,2.79,0,4.18v2.07a4.53,4.53,0,0,0,.26,1.93,3.26,3.26,0,0,0,3,2h19.85l54.63.06,36.83.08,10,.05,2.6,0,.89,0-.89,0-2.6,0-10,.05-36.83.08-54.63.05H135.4a3.76,3.76,0,0,1-3.46-2.28,3.93,3.93,0,0,1-.28-1.07c0-.38,0-.71,0-1.06v-6.25c0-5.59,0-11.29,0-17.07v-12a3.91,3.91,0,0,1,.18-1.17,3.79,3.79,0,0,1,3.6-2.62l121.52.07h2.88a3.88,3.88,0,0,1,2.74.83,3.71,3.71,0,0,1,1.33,2.47c0,.93,0,1.79,0,2.68q0,5.25,0,9.89c0,6.18,0,11.49,0,15.85,0,2.17,0,4.1,0,5.78,0,.83,0,1.61,0,2.32a3.58,3.58,0,0,1-.58,1.83,3.5,3.5,0,0,1-2.11,1.49A2.56,2.56,0,0,1,260.22,297.56Z" style="fill:#263238"></path><rect x="176.09" y="254.52" width="131.84" height="43.05" rx="3.51" style="fill:#f5f5f5"></rect><path d="M304.42,297.56a5.34,5.34,0,0,0,.87-.14,3.43,3.43,0,0,0,2-1.49,3.32,3.32,0,0,0,.54-1.78v-2.31c0-1.68,0-3.61,0-5.78,0-4.36,0-9.67,0-15.85,0-3.09,0-6.39,0-9.89,0-.87,0-1.79,0-2.65a3.29,3.29,0,0,0-1.21-2.23,3.51,3.51,0,0,0-2.51-.74h-2.88l-121.53.08a3.26,3.26,0,0,0-3.1,2.26,3.43,3.43,0,0,0-.15,1v12c0,5.78,0,11.48,0,17.07v6.25a4.38,4.38,0,0,0,.26,1.93,3.25,3.25,0,0,0,3,2h19.85l54.63.06,36.83.08,10,.05,2.61,0,.89,0-.89,0-2.61,0-10,.05-36.83.08-54.63.05H179.6a3.78,3.78,0,0,1-3.47-2.28,4.31,4.31,0,0,1-.27-1.07c0-.38,0-.71,0-1.06V258.05a4.25,4.25,0,0,1,.17-1.17,3.8,3.8,0,0,1,3.6-2.62l121.53.07H304a3.85,3.85,0,0,1,2.73.83,3.63,3.63,0,0,1,1.33,2.47c0,.93,0,1.79,0,2.68,0,3.5,0,6.8,0,9.89,0,6.18,0,11.49,0,15.85,0,2.17,0,4.1,0,5.78,0,.83,0,1.61,0,2.32a3.54,3.54,0,0,1-2.68,3.32A2.56,2.56,0,0,1,304.42,297.56Z" style="fill:#263238"></path><rect x="190.16" y="273.46" width="68.39" height="7.31" rx="3.66" style="fill:#e0e0e0"></rect><path d="M277,276.53a3.08,3.08,0,1,1-3.08-3.07A3.08,3.08,0,0,1,277,276.53Z" style="fill:#818CF8"></path><path d="M287.46,276.53a3.08,3.08,0,1,1-3.08-3.07A3.08,3.08,0,0,1,287.46,276.53Z" style="fill:#e0e0e0"></path><path d="M298,276.53a3.07,3.07,0,1,1-3.07-3.07A3.07,3.07,0,0,1,298,276.53Z" style="fill:#e0e0e0"></path><path d="M244.55,280.77H193.82a3.66,3.66,0,0,1-3.66-3.66h0a3.65,3.65,0,0,1,3.66-3.65h50.73a3.65,3.65,0,0,1,3.66,3.65h0A3.66,3.66,0,0,1,244.55,280.77Z" style="fill:#455a64"></path><rect x="131.89" y="211.25" width="131.84" height="43.05" rx="3.51" style="fill:#e0e0e0"></rect><path d="M260.22,254.3a6.7,6.7,0,0,0,.87-.14,3.56,3.56,0,0,0,2-1.49,3.47,3.47,0,0,0,.54-1.79c0-.7,0-1.47,0-2.31,0-1.68,0-3.61,0-5.78,0-4.35,0-9.67-.05-15.85q0-4.63,0-9.89c0-.87,0-1.78,0-2.65a3.39,3.39,0,0,0-1.21-2.23,3.53,3.53,0,0,0-2.52-.74h-2.88l-121.52.08a3.29,3.29,0,0,0-3.11,2.26,3.86,3.86,0,0,0-.15,1v29.1c0,1.4,0,2.79,0,4.18v2.07a4.51,4.51,0,0,0,.26,1.93,3.29,3.29,0,0,0,3,2h19.85l54.63.05,36.83.09,10,0,2.6,0,.89,0-.89,0-2.6,0-10,.05-36.83.08-54.63.06H135.4a3.77,3.77,0,0,1-3.46-2.29,3.93,3.93,0,0,1-.28-1.07c0-.37,0-.71,0-1.06v-6.25c0-5.59,0-11.29,0-17.06v-12a3.91,3.91,0,0,1,.18-1.17,3.79,3.79,0,0,1,3.6-2.62l121.52.07h2.88a3.88,3.88,0,0,1,2.74.83,3.76,3.76,0,0,1,1.33,2.47c0,.93,0,1.8,0,2.68q0,5.25,0,9.89c0,6.18,0,11.5,0,15.85,0,2.17,0,4.1,0,5.78,0,.84,0,1.61,0,2.32a3.58,3.58,0,0,1-.58,1.83,3.5,3.5,0,0,1-2.11,1.49A2.79,2.79,0,0,1,260.22,254.3Z" style="fill:#263238"></path><rect x="176.09" y="211.25" width="131.84" height="43.05" rx="3.51" style="fill:#f5f5f5"></rect><path d="M304.42,254.3a7.35,7.35,0,0,0,.87-.14,3.52,3.52,0,0,0,2-1.49,3.38,3.38,0,0,0,.54-1.79v-2.31c0-1.68,0-3.61,0-5.78,0-4.35,0-9.67,0-15.85,0-3.09,0-6.39,0-9.89,0-.87,0-1.78,0-2.65a3.31,3.31,0,0,0-1.21-2.23,3.51,3.51,0,0,0-2.51-.74h-2.88l-121.53.08a3.27,3.27,0,0,0-3.1,2.26,3.48,3.48,0,0,0-.15,1v12c0,5.77,0,11.47,0,17.06v6.25a4.36,4.36,0,0,0,.26,1.93,3.28,3.28,0,0,0,3,2h19.85l54.63.05,36.83.09,10,0,2.61,0,.89,0-.89,0-2.61,0-10,.05-36.83.08-54.63.06H179.6a3.79,3.79,0,0,1-3.47-2.29,4.31,4.31,0,0,1-.27-1.07c0-.37,0-.71,0-1.06V214.78a4.25,4.25,0,0,1,.17-1.17,3.8,3.8,0,0,1,3.6-2.62l121.53.07H304a3.85,3.85,0,0,1,2.73.83,3.68,3.68,0,0,1,1.33,2.47c0,.93,0,1.8,0,2.68,0,3.5,0,6.8,0,9.89,0,6.18,0,11.5,0,15.85,0,2.17,0,4.1,0,5.78,0,.84,0,1.61,0,2.32a3.54,3.54,0,0,1-2.68,3.32A2.8,2.8,0,0,1,304.42,254.3Z" style="fill:#263238"></path><path d="M254.9,237.5H193.82a3.65,3.65,0,0,1-3.66-3.65h0a3.66,3.66,0,0,1,3.66-3.66H254.9a3.66,3.66,0,0,1,3.66,3.66h0A3.65,3.65,0,0,1,254.9,237.5Z" style="fill:#e0e0e0"></path><path d="M277,233.26a3.08,3.08,0,1,1-3.08-3.07A3.08,3.08,0,0,1,277,233.26Z" style="fill:#818CF8"></path><path d="M287.46,233.26a3.08,3.08,0,1,1-3.08-3.07A3.08,3.08,0,0,1,287.46,233.26Z" style="fill:#e0e0e0"></path><path d="M298,233.26a3.07,3.07,0,1,1-3.07-3.07A3.07,3.07,0,0,1,298,233.26Z" style="fill:#e0e0e0"></path><path d="M193.82,237.5h0a3.65,3.65,0,0,1-3.66-3.65h0a3.66,3.66,0,0,1,3.66-3.66h0a3.65,3.65,0,0,1,3.65,3.66h0A3.64,3.64,0,0,1,193.82,237.5Z" style="fill:#455a64"></path><rect x="131.89" y="167.58" width="131.84" height="43.05" rx="3.51" style="fill:#e0e0e0"></rect><path d="M260.22,210.63a8.59,8.59,0,0,0,.87-.15,3.45,3.45,0,0,0,2.57-3.27c0-.7,0-1.48,0-2.31,0-1.68,0-3.61,0-5.78,0-4.35,0-9.67-.05-15.85q0-4.64,0-9.89c0-.87,0-1.78,0-2.65a3.37,3.37,0,0,0-1.21-2.23,3.53,3.53,0,0,0-2.52-.74h-2.88l-121.52.08a3.28,3.28,0,0,0-3.11,2.26,3.8,3.8,0,0,0-.15,1v29.1c0,1.4,0,2.79,0,4.18v2.07a4.53,4.53,0,0,0,.26,1.93,3.26,3.26,0,0,0,3,2h19.85l54.63.05,36.83.08,10,0,2.6,0,.89,0-.89,0-2.6,0-10,0-36.83.08-54.63.06H135.4a3.78,3.78,0,0,1-3.46-2.29,3.93,3.93,0,0,1-.28-1.07c0-.38,0-.71,0-1.06v-6.25c0-5.59,0-11.29,0-17.07v-12a3.91,3.91,0,0,1,.18-1.17,3.79,3.79,0,0,1,3.6-2.62l121.52.07h2.88a3.88,3.88,0,0,1,2.74.83,3.74,3.74,0,0,1,1.33,2.47c0,.93,0,1.79,0,2.68q0,5.25,0,9.89c0,6.18,0,11.5,0,15.85,0,2.17,0,4.1,0,5.78,0,.84,0,1.61,0,2.32a3.58,3.58,0,0,1-.58,1.83,3.5,3.5,0,0,1-2.11,1.49A2.79,2.79,0,0,1,260.22,210.63Z" style="fill:#263238"></path><rect x="176.09" y="167.58" width="131.84" height="43.05" rx="3.51" style="fill:#f5f5f5"></rect><path d="M304.42,210.63s.3,0,.87-.15a3.45,3.45,0,0,0,2-1.48,3.38,3.38,0,0,0,.54-1.79V204.9c0-1.68,0-3.61,0-5.78,0-4.35,0-9.67,0-15.85,0-3.09,0-6.39,0-9.89,0-.87,0-1.78,0-2.65a3.29,3.29,0,0,0-1.21-2.23,3.51,3.51,0,0,0-2.51-.74h-2.88l-121.53.08a3.26,3.26,0,0,0-3.1,2.26,3.43,3.43,0,0,0-.15,1v12c0,5.78,0,11.48,0,17.07v6.25a4.38,4.38,0,0,0,.26,1.93,3.25,3.25,0,0,0,3,2h19.85l54.63.05,36.83.08,10,0,2.61,0,.89,0-.89,0-2.61,0-10,0-36.83.08-54.63.06H179.6a3.81,3.81,0,0,1-3.47-2.29,4.31,4.31,0,0,1-.27-1.07c0-.38,0-.71,0-1.06V171.11a4.25,4.25,0,0,1,.17-1.17,3.8,3.8,0,0,1,3.6-2.62l121.53.07H304a3.85,3.85,0,0,1,2.73.83,3.65,3.65,0,0,1,1.33,2.47c0,.93,0,1.79,0,2.68,0,3.5,0,6.8,0,9.89,0,6.18,0,11.5,0,15.85,0,2.17,0,4.1,0,5.78,0,.84,0,1.61,0,2.32a3.54,3.54,0,0,1-2.68,3.32A2.8,2.8,0,0,1,304.42,210.63Z" style="fill:#263238"></path><path d="M254.9,193.83H193.82a3.66,3.66,0,0,1-3.66-3.66h0a3.66,3.66,0,0,1,3.66-3.65H254.9a3.66,3.66,0,0,1,3.66,3.65h0A3.66,3.66,0,0,1,254.9,193.83Z" style="fill:#e0e0e0"></path><path d="M277,189.59a3.08,3.08,0,1,1-3.08-3.07A3.08,3.08,0,0,1,277,189.59Z" style="fill:#818CF8"></path><path d="M287.46,189.59a3.08,3.08,0,1,1-3.08-3.07A3.08,3.08,0,0,1,287.46,189.59Z" style="fill:#e0e0e0"></path><path d="M298,189.59a3.07,3.07,0,1,1-3.07-3.07A3.07,3.07,0,0,1,298,189.59Z" style="fill:#e0e0e0"></path><path d="M220.7,193.83H193.82a3.66,3.66,0,0,1-3.66-3.66h0a3.66,3.66,0,0,1,3.66-3.65H220.7a3.66,3.66,0,0,1,3.66,3.65h0A3.66,3.66,0,0,1,220.7,193.83Z" style="fill:#455a64"></path></g><g id="freepik--Floor--inject-26"><path d="M453.25,470.63c0,.15-93.69.26-209.24.26s-209.26-.11-209.26-.26,93.67-.26,209.26-.26S453.25,470.49,453.25,470.63Z" style="fill:#263238"></path></g></svg>